<?xml version="1.0" standalone="no"?>
<!DOCTYPE svg PUBLIC "-//W3C//DTD SVG 1.1//EN" "http://www.w3.org/Graphics/SVG/1.1/DTD/svg11.dtd" >
<svg xmlns="http://www.w3.org/2000/svg" xmlns:xlink="http://www.w3.org/1999/xlink" version="1.1">
<metadata>
Created by FontForge 20150824 at Mon Mar  7 07:25:19 2016
 By Everything Fonts
2004 Tup Wanders
</metadata>
<defs>
<font id="AaarghBold" horiz-adv-x="536" >
  <font-face 
    font-family="AaarghBold"
    font-weight="700"
    font-stretch="normal"
    units-per-em="2048"
    panose-1="0 0 4 0 0 0 0 0 0 0"
    ascent="1638"
    descent="-410"
    x-height="1182"
    cap-height="1638"
    bbox="-113 -655 8772 1980"
    underline-thickness="40"
    underline-position="-332"
    unicode-range="U+000D-25FC"
  />
<missing-glyph horiz-adv-x="748" 
d="M68 0v1365h544v-1365h-544zM136 68h408v1229h-408v-1229z" />
    <glyph glyph-name=".notdef" horiz-adv-x="748" 
d="M68 0v1365h544v-1365h-544zM136 68h408v1229h-408v-1229z" />
    <glyph glyph-name="glyph1" horiz-adv-x="2048" 
 />
    <glyph glyph-name="glyph1" horiz-adv-x="2048" 
 />
    <glyph glyph-name="uni000D" unicode="&#xd;" horiz-adv-x="956" 
 />
    <glyph glyph-name="space" unicode=" " horiz-adv-x="956" 
 />
    <glyph glyph-name="exclam" unicode="!" 
d="M141 0v242h242v-242h-242zM162 276v1319h203v-1319h-203z" />
    <glyph glyph-name="quotedbl" unicode="&#x22;" horiz-adv-x="624" 
d="M27 1278v317h225l-23 -317h-202zM340 1278v317h225l-22 -317h-203z" />
    <glyph glyph-name="numbersign" unicode="#" horiz-adv-x="1331" 
d="M129 541v202h231q2 8 4.5 18.5t6.5 31.5h-242v202h293q33 145 70.5 301t68.5 295h211l-145 -596h108q33 145 71 301t71 295h208l-145 -596h207v-202h-252q-2 -8 -5 -18.5t-7 -31.5h264v-202h-311q-31 -133 -67 -275.5t-64 -271.5h-211l133 547h-105q-14 -61 -31.5 -133
t-36 -145t-35 -142.5t-30.5 -126.5h-209l131 547h-182zM567 743h107l12 50h-106q-4 -10 -6.5 -18.5t-6.5 -31.5z" />
    <glyph glyph-name="dollar" unicode="$" horiz-adv-x="1046" 
d="M53 129v233q111 -72 195 -115.5t145 -56.5v568q-18 14 -44.5 31.5t-61.5 39.5q-35 23 -58.5 41.5t-40.5 34.5q-127 127 -127 281q0 18 2.5 38.5t8.5 45.5v-2q61 287 321 336v96h203v-94q137 -29 272 -129v-248q-82 72 -151.5 118t-120.5 58v-545q176 -135 242 -205v2
q100 -111 100 -233q0 -39 -12 -102q-49 -268 -330 -328v-109h-203v103q-182 18 -340 141zM270 1180q0 -51 70 -121q8 -8 19.5 -18.5t33.5 -26.5v385q-94 -43 -119 -174q-4 -14 -4 -25.5v-19.5zM596 199q98 45 129 178v2q4 20 4 29q0 49 -51 112v-2q-12 14 -36 35.5t-46 44.5
v-399z" />
    <glyph glyph-name="percent" unicode="%" horiz-adv-x="1253" 
d="M98 1339q0 51 19.5 96.5t53.5 79t79 53t96 19.5t97 -19.5t80 -53t53.5 -78.5t19.5 -97q0 -53 -19.5 -98t-53.5 -79t-80 -53t-97 -19t-96 19t-79 53t-53.5 79t-19.5 98zM170 -2l666 1618h221l-664 -1618h-223zM289 1339q0 -25 17 -41t40 -16q25 0 42.5 16.5t17.5 40.5
q0 23 -17.5 39.5t-42.5 16.5q-23 0 -40 -16.5t-17 -39.5zM614 225q0 51 19.5 97.5t53.5 80t79 53t98 19.5q51 0 96.5 -19.5t79 -53t54 -80t20.5 -97.5t-20.5 -97t-54 -80t-79 -53.5t-96.5 -19.5q-53 0 -98 19.5t-79 53.5t-53.5 80t-19.5 97zM807 225q0 -25 16 -41t41 -16
q23 0 39.5 16.5t16.5 40.5q0 25 -16.5 41.5t-39.5 16.5q-25 0 -41 -16.5t-16 -41.5z" />
    <glyph glyph-name="ampersand" unicode="&#x26;" horiz-adv-x="1488" 
d="M66 432q0 141 74.5 244.5t240.5 189.5q-102 106 -135 172v-2q-55 88 -56 205q0 143 113 258q123 129 318 129q188 0 299 -117q102 -109 102 -260q0 -178 -121 -299q-68 -68 -205 -143q78 -86 159 -173t161 -175q14 23 26.5 45t20.5 43q18 51 35.5 133t29.5 192h201
q-10 -162 -54 -306t-122 -261l287 -305h-269l-141 152q-98 -84 -174 -123h2q-59 -31 -130 -45.5t-153 -14.5q-264 0 -405 170q-104 129 -104 291zM264 428q0 -33 11.5 -69.5t29.5 -71.5q39 -61 108.5 -96t168.5 -35q125 0 217 59q20 10 43.5 30.5t52.5 49.5
q-96 104 -190.5 206.5t-188.5 207.5q-66 -31 -118 -63t-76 -60q-57 -59 -58 -158zM389 1235q0 -59 57 -137q39 -53 117 -142q147 72 199 123q61 61 61 164q0 82 -45 137q-55 61 -164 62q-98 0 -161.5 -57.5t-63.5 -149.5zM489 739q6 -8 13.5 -15t13.5 -15q4 4 9.5 5t9.5 5
q4 0 12 4zM537 944l59 -16l-29 26q-2 0 -2 1t-2 1q-4 -2 -16 -6l8 2q-4 -2 -9 -4t-9 -4zM895 295q10 -10 18.5 -19.5t18.5 -19.5l2 76l-21 -19z" />
    <glyph glyph-name="quotesingle" unicode="'" horiz-adv-x="444" 
d="M100 1278v317h226l-23 -317h-203z" />
    <glyph glyph-name="parenleft" unicode="(" horiz-adv-x="692" 
d="M129 903q4 94 10 182.5t19 165.5q31 190 92 361.5t149 306.5l187 -80q-233 -342 -250 -938q4 -86 11 -167t18 -159q27 -180 82 -333.5t141 -278.5l-199 -69q-248 387 -260 1009z" />
    <glyph glyph-name="parenright" unicode=")" horiz-adv-x="692" 
d="M98 1839l185 80q90 -135 151.5 -306t89.5 -362q12 -78 19.5 -166t11.5 -182q-14 -623 -260 -1009l-129 43l-29 86q63 94 108.5 233t73.5 319q10 78 16.5 159t10.5 167q-12 596 -248 938z" />
    <glyph glyph-name="asterisk" unicode="*" horiz-adv-x="645" 
d="M49 1313l64 194l94 -28v104h203v-115q27 10 54.5 19.5t43.5 15.5l63 -192l-96 -31q16 -23 32.5 -45.5t27.5 -36.5l-166 -115l-60 84q-18 -27 -35.5 -50t-27.5 -38l-162 117l59 88q-29 8 -53 16.5t-41 12.5z" />
    <glyph glyph-name="plus" unicode="+" horiz-adv-x="940" 
d="M63 541v200h764v-200h-764zM342 260v764h205v-764h-205z" />
    <glyph glyph-name="comma" unicode="," horiz-adv-x="440" 
d="M25 -43q20 10 32.5 11t19.5 2t10 6.5t3 23.5h-8v242h240v-189q-2 -76 -55.5 -142.5t-164.5 -125.5zM174 0v111h92v-111h-92z" />
    <glyph glyph-name="hyphen" unicode="-" horiz-adv-x="772" 
d="M74 541v200h598v-200h-598z" />
    <glyph glyph-name="period" unicode="." 
d="M133 0v242h242v-242h-242z" />
    <glyph glyph-name="slash" unicode="/" horiz-adv-x="878" 
d="M92 -6l436 1812h209l-436 -1812h-209z" />
    <glyph glyph-name="zero" unicode="0" horiz-adv-x="1318" 
d="M70 592q0 250 163 432q162 184 385 184q221 0 386 -184q164 -182 163 -432q0 -293 -143 -455t-406 -162q-244 0 -399 170q-150 164 -149 447zM274 592q0 -199 101 -307q88 -105 246 -105q152 0 245 107q47 59 73 133t26 172q0 86 -28 157.5t-81 133.5q-104 121 -235 121
q-63 0 -125 -34t-113 -87q-51 -61 -80 -134t-29 -157z" />
    <glyph glyph-name="one" unicode="1" horiz-adv-x="745" 
d="M2 971l311 215h170v-1186h-207v913q-2 0 -2 -2t-2 -2q-47 -33 -75.5 -54t-57.5 -50q-2 4 -10 14t-17.5 22.5t-18.5 22.5t-11 15v-2q-4 6 -15.5 19t-23.5 27.5t-23.5 28t-17.5 19.5z" />
    <glyph glyph-name="two" unicode="2" horiz-adv-x="1007" 
d="M70 0v158l399 415q174 180 174 291q0 78 -57 121q-53 37 -117 37q-31 0 -59.5 -10.5t-51.5 -26.5q-25 -23 -41 -53.5t-20 -71.5l-61 -49q-12 2 -36 4t-48.5 5t-46 5t-33.5 4q45 188 102 254q102 125 301 125q80 0 146.5 -25.5t119.5 -70.5q51 -49 79 -112.5t28 -135.5
q0 -96 -51 -184q-29 -53 -81 -117.5t-118 -134.5q-37 -39 -62.5 -64.5t-49 -50t-50 -52.5t-65.5 -68q98 2 174 3t129 1q55 0 104 -3.5t78 -7.5v-186h-786z" />
    <glyph glyph-name="three" unicode="3" horiz-adv-x="1009" 
d="M25 -246l38 201q94 -16 163 -22.5t112 -6.5q160 0 242 84q20 16 32.5 42t22.5 54q6 27 11 71t9 104q-4 109 -57 168q-51 63 -152 65q-14 0 -28.5 1t-26.5 1l-69 -2v211h110q63 0 105 12v-2q84 27 84 135q0 133 -142 134q-156 0 -221 -183q-10 4 -25.5 10.5t-33 12.5
t-32.5 11t-22 9h5q-23 10 -38.5 16.5t-43.5 34.5q106 287 409 287q219 0 309 -145q45 -80 45 -180q0 -166 -126 -259q151 -106 151 -321q0 -324 -154 -453h3q-70 -61 -166.5 -90.5t-219.5 -29.5q-92 0 -294 30z" />
    <glyph glyph-name="four" unicode="4" horiz-adv-x="1044" 
d="M33 92v172q254 438 383 663.5t129 258.5h256v-907h155v-187h-155v-313h-203v313h-565zM262 281h334v561zM596 842l86 145q4 18 20 47l-102 8q-4 8 -3 2t1 -10q-2 -16 -2 -30.5v-24.5v-137z" />
    <glyph glyph-name="five" unicode="5" horiz-adv-x="915" 
d="M-18 -246l38 201q94 -16 163 -22.5t112 -6.5q160 0 242 84q39 39 55 96q8 27 12 71t6 104q-4 111 -53 170v-2q-51 61 -154 65q-61 0 -122.5 2t-120.5 2h-74l18 670h654v-191h-461q0 -68 -2 -135t-4 -135q29 0 54.5 -1t45.5 -1q123 -6 197 -43q225 -109 225 -385
q0 -324 -151 -451q-147 -123 -383 -122q-94 0 -297 30z" />
    <glyph glyph-name="six" unicode="6" horiz-adv-x="1089" 
d="M63 528q0 4 1.5 10.5t1.5 10.5q2 10 2 12v6l14 281q23 328 225 485v-2q145 117 391 103q45 -4 118 -14.5t171 -33.5l-41 -196q-92 18 -159.5 29.5t-114.5 11.5q-182 10 -279 -98q-63 -70 -90 -179q113 72 246 66h2q186 -8 315 -172h-2q125 -160 117 -365
q-12 -242 -140 -369.5t-345 -117.5h2q-213 10 -332 160q-113 141 -103 374v-2zM272 522q-6 -139 56.5 -226t177.5 -91q109 -8 184 69q74 79 84 222q6 123 -69 219q-66 88 -166 98q-98 0 -177 -82q-43 -45 -64.5 -97t-25.5 -112z" />
    <glyph glyph-name="seven" unicode="7" horiz-adv-x="1001" 
d="M39 987v201h876v-158l-639 -1282h-225l617 1239h-629z" />
    <glyph glyph-name="eight" unicode="8" horiz-adv-x="1075" 
d="M92 479q6 100 51 192.5t113 153.5q-47 53 -67.5 125t-16.5 158q4 76 37 145.5t90 120.5q106 94 231 88q68 -4 125.5 -36.5t104.5 -90.5q94 -117 88 -262q-10 -152 -80 -239q86 -72 131 -178.5t39 -223.5q-12 -233 -145 -350v2q-119 -106 -304 -98h3q-190 6 -306 145
q-53 68 -76.5 157t-17.5 191zM307 465q-8 -113 43 -186q47 -74 150 -78q86 -4 143 45q39 33 57.5 82.5t22.5 115.5q8 102 -55 187q-59 80 -140 82q-70 0 -129 -54q-82 -72 -92 -194zM381 1094q-2 -72 25.5 -116t80.5 -52q8 2 22.5 2h22.5q47 10 72 47v-2q14 23 22.5 47
t10.5 59q4 68 -37 121q-18 23 -37.5 36t-44.5 15q-49 0 -88 -43q-45 -48 -49 -114z" />
    <glyph glyph-name="nine" unicode="9" horiz-adv-x="1075" 
d="M45 -201l49 195q92 -18 157.5 -29.5t110.5 -13.5q184 -6 281 98q59 66 86 164q-104 -55 -248 -49q-211 12 -327 162q-57 72 -83 167t-20 207q6 104 45 191.5t107 159.5q74 74 156.5 107.5t177.5 29.5q188 -8 315 -172h-2q123 -156 117 -361q2 -10 2 -17v-17
q-4 -102 -7.5 -174t-7.5 -113q-10 -154 -67.5 -280t-157.5 -204v3q-145 -117 -393 -103q-41 4 -112.5 15.5t-178.5 33.5zM258 690q-4 -141 57.5 -227t178.5 -92q111 -10 182 71q41 41 60.5 96.5t23.5 125.5q8 119 -70 219q-70 94 -164 96q-94 6 -176 -80q-82 -88 -92 -209z
" />
    <glyph glyph-name="colon" unicode=":" 
d="M141 0v242h242v-242h-242zM141 942v242h242v-242h-242z" />
    <glyph glyph-name="semicolon" unicode=";" 
d="M63 -43q20 10 33 11t20 2t10 6.5t3 23.5h-8v242h239v-189q-2 -76 -55 -142.5t-164 -125.5zM121 942v242h239v-242h-239zM213 0v111h92v-111h-92z" />
    <glyph glyph-name="less" unicode="&#x3c;" horiz-adv-x="1054" 
d="M109 795l567 800h250l-570 -800q63 -90 137 -192.5t148 -207t145.5 -206t133.5 -189.5h-246z" />
    <glyph glyph-name="equal" unicode="=" horiz-adv-x="940" 
d="M61 399v201h764v-201h-764zM61 649v203h764v-203h-764z" />
    <glyph glyph-name="greater" unicode="&#x3e;" horiz-adv-x="1054" 
d="M68 1595h247l570 -800l-566 -795h-247l563 795z" />
    <glyph glyph-name="question" unicode="?" horiz-adv-x="1021" 
d="M63 1270q105 323 431 323q80 0 149.5 -23.5t122.5 -64.5q66 -55 99.5 -132t33.5 -175q0 -125 -51 -215q-39 -63 -137 -166h2q-47 -49 -77 -80.5t-36 -42.5q-8 -16 -13 -40.5t-5 -59.5v-311h-203v340q0 43 10 80.5t27 66.5q14 23 47 63.5t88 100.5q94 98 115 135
q33 53 32 137q0 82 -45 137q-53 55 -166 56q-104 0 -147 -31q-39 -29 -90 -158q-45 16 -91 30.5t-96 29.5zM365 0v242h241v-242h-241z" />
    <glyph glyph-name="at" unicode="@" horiz-adv-x="1679" 
d="M86 784q0 330 172 568q201 268 526 268q334 0 543 -262h-2q190 -236 191 -574q0 -190 -62 -344l4 21l-55 -58h-512v15q-68 -35 -154 -35q-156 0 -254 121h2q-88 113 -88 264q0 39 6 76q25 156 136 258q113 102 274 94h-2q70 -4 125 -7t96 -7q8 0 36 -1t32 -1v-584h188
q10 43 16.5 93t6.5 97q0 250 -140 437q-147 195 -387 194q-233 0 -368 -194q-125 -176 -125 -437q0 -129 30.5 -238.5t94.5 -199.5q135 -195 368 -194q195 0 355 159l211 -77q-266 -279 -566 -279q-328 0 -526 264q-172 236 -172 563zM610 766q0 -31 7.5 -57.5t17.5 -46.5
q45 -72 98 -72q68 0 111 55q47 57 47 146v127v65q-20 2 -32.5 2t-27.5 2q-10 0 -19 1t-17 1q-61 4 -115 -43q-70 -59 -70 -180zM891 791q2 -12 2 -23.5t2 -15.5l109 8l-7 43z" />
    <glyph glyph-name="A" unicode="A" horiz-adv-x="1355" 
d="M-18 0l575 1636h180l588 -1636h-221l-193 539h-518q-47 -129 -96 -270.5t-94 -268.5h-221zM465 750h371q-27 74 -48.5 132t-43 116.5t-44 121t-53.5 146.5q-23 -66 -45 -127.5t-43.5 -124t-45.5 -127t-48 -137.5z" />
    <glyph glyph-name="B" unicode="B" horiz-adv-x="1230" 
d="M98 8l2 1622q80 10 162 16.5t168 6.5h56.5t56.5 -2q78 -4 151.5 -28t139.5 -67q158 -113 170 -286q1 -19 1 -38q0 -92 -25 -167q-30 -90 -93 -150q41 -20 72.5 -43.5t62.5 -54.5q53 -55 83 -126.5t34 -155.5q1 -21 1 -41q0 -215 -98 -338q-141 -172 -489 -183h-39
q-84 1 -175 7q-112 8 -241 28zM307 190q97 -6 171 -6h36q270 10 363 111q33 37 49 93q13 45 13 105q0 15 -1 31v-2q-10 119 -119 193h2q-102 67 -225 67h-4h-285v-592zM307 991h146q346 0 346 245v17q-4 84 -103 140q-88 55 -207 59q-29 0 -53 1t-47 1h-27.5h-15.5h-14h-25
v-463z" />
    <glyph glyph-name="C" unicode="C" horiz-adv-x="1232" 
d="M57 748v65l2 68q6 147 32 259.5t75 196.5q31 53 77 103.5t113 101.5q160 113 437 113q25 0 62.5 -2t81.5 -4t92 -6.5t93 -6.5v-213q-125 14 -211 19.5t-139 5.5q-174 0 -274 -72q-51 -37 -85 -73.5t-55 -71.5q-70 -131 -88 -373v-88q14 -244 88 -371q39 -72 140 -147
q49 -35 118.5 -53.5t155.5 -18.5q53 0 139 6.5t211 20.5v-211q-121 -10 -201.5 -16.5t-127.5 -6.5q-137 0 -248 30t-189 85q-63 47 -111 99.5t-79 103.5q-47 84 -73.5 198.5t-35.5 258.5z" />
    <glyph glyph-name="D" unicode="D" horiz-adv-x="1374" 
d="M121 4v1636h84q41 0 139 7h-2q51 4 85 6t54 2q147 0 261 -29t196 -82q139 -96 203 -203q106 -168 114 -454v2q2 -23 2 -41.5v-28.5v-27.5t-2 -39.5q-6 -137 -33.5 -251t-80.5 -200q-35 -59 -85 -110.5t-120 -94.5q-168 -110 -450 -110h-5q-31 0 -75 1t-92 4t-98 6t-95 7z
M330 197q113 -6 172 -7q92 0 169 18.5t132 53.5q47 35 87 71t60 70h-2q80 125 96 373v88q-16 244 -94 371l2 -2q-43 70 -147 143q-102 72 -303 72h-32.5t-33 -1t-43 -2t-63.5 -3v-1245z" />
    <glyph glyph-name="E" unicode="E" horiz-adv-x="1089" 
d="M115 0v1636h878v-211h-667v-434h667v-209h-667v-575h665v-207h-876z" />
    <glyph glyph-name="F" unicode="F" horiz-adv-x="1085" 
d="M115 0v1636h878v-211h-667v-434h667v-209h-667v-782h-211z" />
    <glyph glyph-name="G" unicode="G" horiz-adv-x="1409" 
d="M76 752v65l2 68q12 287 108 450q61 106 197 203q160 113 444 113q25 0 63 -2t84 -4.5t95 -6.5t94 -6v-211q-262 25 -358 25q-180 0 -281 -72q-102 -78 -141 -145q-76 -125 -90 -369q-2 -6 -2 -43q0 -33 2 -39q14 -252 90 -372q37 -63 141 -144q96 -72 281 -72h59.5
t53 1.5t55 2.5t67.5 3v483h-385v211h598v-889l-118 -10q-59 -4 -137 -5t-171 -1q-289 0 -444 110q-68 49 -118 99.5t-79 101.5q-47 80 -73.5 193.5t-36.5 261.5z" />
    <glyph glyph-name="H" unicode="H" horiz-adv-x="1376" 
d="M129 0v1634h209v-643h653v643h209v-1634h-209v782h-653v-782h-209z" />
    <glyph glyph-name="I" unicode="I" horiz-adv-x="534" 
d="M162 -2v1640h211v-1640h-211z" />
    <glyph glyph-name="J" unicode="J" horiz-adv-x="577" 
d="M-88 -31q66 6 108.5 17.5t65.5 31.5q47 39 68.5 137.5t23.5 256.5q0 240 1 431t1 339v143.5t-1 131t-1 108.5v73h213v-1232q-2 -195 -29 -314q-33 -141 -124 -223q-49 -41 -130 -67.5t-196 -34.5v202z" />
    <glyph glyph-name="K" unicode="K" horiz-adv-x="1323" 
d="M145 0v1636h209v-575q160 143 324 288.5t323 286.5h316l-844 -749q201 -186 416 -408.5t444 -478.5h-278q-180 197 -353.5 374t-347.5 335v-709h-209z" />
    <glyph glyph-name="L" unicode="L" horiz-adv-x="1105" 
d="M158 2v1636h209v-1429h671v-207h-880z" />
    <glyph glyph-name="M" unicode="M" horiz-adv-x="1679" 
d="M162 2v1636h188l463 -895q111 221 225.5 449.5t225.5 445.5h186v-1636h-209v1118q-53 -109 -108.5 -222.5t-110.5 -226t-107.5 -222t-99.5 -207.5l-442 891v-1131h-211z" />
    <glyph glyph-name="N" unicode="N" horiz-adv-x="1531" 
d="M176 2v1638h184l744 -1198v1198h209l-2 -1638h-185l-741 1196v-1196h-209z" />
    <glyph glyph-name="O" unicode="O" horiz-adv-x="1646" 
d="M76 815q0 352 190 590h-2q199 250 516 250t531 -250q205 -238 205 -590q0 -350 -205 -588q-212 -247 -528 -247h-3q-317 0 -516 249h2q-190 238 -190 586zM287 815q0 -131 35.5 -246.5t99.5 -206.5q66 -86 156.5 -133t201.5 -47q225 0 373 180q154 190 154 453
q0 135 -39 248t-115 207q-145 178 -373 178q-229 0 -358 -178q-135 -178 -135 -455z" />
    <glyph glyph-name="P" unicode="P" horiz-adv-x="1343" 
d="M170 -6v1642q172 14 278.5 21.5t147.5 7.5q21 1 41 1q99 0 187 -24q106 -30 192 -98q47 -39 79.5 -74.5t53.5 -68.5h-2q33 -49 48 -109.5t19 -128.5q0 -20 3 -24v-52q-2 -14 -2.5 -24t-0.5 -19q-25 -236 -219 -389q-170 -131 -395 -131q-39 0 -94 2t-127 9v-541h-209z
M379 743q98 -8 159.5 -11t84.5 -3h14q119 0 233 94q53 41 84 98.5t43 125.5q2 10 3 25t4 22v-4q1 16 1 28t-1 19q-4 78 -34 138t-77 101q-57 42 -125 64q-57 18 -121 19q-12 0 -24 -1q-53 0 -109.5 -3t-134.5 -9v-391q-2 -12 -2 -22.5t2 -20.5v-269z" />
    <glyph glyph-name="Q" unicode="Q" horiz-adv-x="1675" 
d="M84 813q0 356 190 590q201 250 517 250q317 0 530 -246q207 -242 207 -594q0 -328 -185 -563q-170 -215 -415 -264q4 -16 8 -31.5t8 -28.5v2q41 -104 128 -158.5t206 -54.5q41 0 110.5 8.5t170.5 24.5l36 -209q-98 -16 -173.5 -24.5t-127.5 -8.5q-35 0 -64.5 2.5
t-53.5 6.5h2q-170 25 -275 112q-145 131 -188 350q-133 16 -249 81t-202 175q-180 240 -180 580zM293 813q0 -274 137 -455q135 -180 358 -180q225 0 375 180q154 184 154 455q0 266 -154 455q-147 180 -375 180q-221 0 -358 -180q-137 -181 -137 -455z" />
    <glyph glyph-name="R" unicode="R" horiz-adv-x="1404" 
d="M178 0v1628q122 16 218 22q73 5 130 5h33q324 -10 469 -162q115 -122 117 -358q-16 -211 -113.5 -322t-288.5 -151q74 -74 156 -158t163 -170t157.5 -170t144.5 -158h-279q-156 170 -310 328t-314 307h-15.5t-11.5 1t-16 2t-31 3v-647h-209zM387 854q16 -2 32.5 -1
t29.5 -1h4q16 4 34 0q98 2 183.5 15.5t132.5 39.5q59 33 92 91.5t35 146.5q0 133 -68 198q-94 92 -342 101q-21 1 -41 1h-21q-30 -1 -71 -5v-586z" />
    <glyph glyph-name="S" unicode="S" horiz-adv-x="1146" 
d="M104 133v238q111 -74 204 -120t165 -61l-2 3q25 -4 45.5 -7.5t36.5 -3.5q201 0 244 205l-2 -4q2 10 3 19.5t1 15.5q0 74 -88 162q-23 23 -77 65.5t-140 106.5q-113 82 -174.5 129t-73.5 57q-135 129 -135 287q0 18 2 38.5t8 45.5v-2q41 190 176 280q53 39 118.5 56.5
t139.5 17.5q61 0 127 -14q125 -25 260 -125v-254q-94 80 -169 127t-130 57q-23 4 -44 7t-44 3q-72 0 -125 -35h2q-82 -53 -102 -165q-2 -12 -3 -23.5t-1 -21.5q0 -43 41 -91q29 -29 79 -72.5t127 -101.5q129 -94 212 -162.5t124 -113.5q104 -109 105 -240q0 -27 -3 -51.5
t-7 -52.5q-31 -186 -168 -269v3q-129 -84 -306 -84q-35 0 -62.5 2t-53.5 6q-86 18 -164 54t-146 89z" />
    <glyph glyph-name="T" unicode="T" horiz-adv-x="1142" 
d="M51 1427v211h1002v-211h-396v-1427h-211v1427h-395z" />
    <glyph glyph-name="U" unicode="U" horiz-adv-x="1437" 
d="M145 565v1067h222v-1057q0 -180 61 -276q39 -51 104.5 -78.5t159.5 -27.5q92 0 159 27.5t103 78.5q61 92 62 276v1057h221v-1067q0 -588 -545 -588q-547 0 -547 588z" />
    <glyph glyph-name="V" unicode="V" horiz-adv-x="1470" 
d="M43 1632h221l455 -1261q111 311 223.5 633.5t220.5 627.5h221l-573 -1634h-180z" />
    <glyph glyph-name="W" unicode="W" horiz-adv-x="2166" 
d="M55 1638h224l333 -1185q84 293 170 595t166 590h191l336 -1185q84 293 170 595t165 590h224l-463 -1636h-193l-334 1184q-84 -293 -170 -595t-165 -589h-191z" />
    <glyph glyph-name="X" unicode="X" horiz-adv-x="1372" 
d="M8 1638h246l397 -632q96 156 198.5 318.5t194.5 313.5h246l-518 -829q57 -92 123 -196.5t132.5 -210t131 -209t119.5 -191.5h-246l-381 608q-94 -150 -192.5 -306.5t-190.5 -301.5h-245l503 805q-59 94 -125.5 201.5t-135 216t-134 215t-123.5 198.5z" />
    <glyph glyph-name="Y" unicode="Y" horiz-adv-x="1300" 
d="M-18 1638h245l398 -632q98 156 199.5 317.5t197.5 314.5h246l-541 -862l2 2v-776h-209v780q-61 96 -129.5 206t-139.5 222.5t-139.5 222t-129.5 205.5z" />
    <glyph glyph-name="Z" unicode="Z" horiz-adv-x="1257" 
d="M98 2l703 1425h-678v211h1016l-705 -1429h672v-209l-862 2h-146z" />
    <glyph glyph-name="bracketleft" unicode="[" horiz-adv-x="901" 
d="M215 -571v2476h502v-203h-297v-2069h297v-204h-502z" />
    <glyph glyph-name="backslash" unicode="\" horiz-adv-x="878" 
d="M92 1806h209l436 -1812h-209z" />
    <glyph glyph-name="bracketright" unicode="]" horiz-adv-x="901" 
d="M215 -367h297v2069h-297v203h502v-2476h-502v204z" />
    <glyph glyph-name="asciicircum" unicode="^" horiz-adv-x="757" 
d="M84 1438l55 -84l232 155l233 -155l55 84l-288 192z" />
    <glyph glyph-name="underscore" unicode="_" horiz-adv-x="1314" 
d="M63 0v205h1127v-205h-1127z" />
    <glyph glyph-name="grave" unicode="`" horiz-adv-x="638" 
d="M129 1509l330 -163l45 88l-330 163z" />
    <glyph glyph-name="a" unicode="a" horiz-adv-x="1273" 
d="M63 545q0 31 3.5 59.5t7.5 57.5q39 252 217 407v-2q147 135 356 135q22 0 45 -2q78 -2 179.5 -8t236.5 -23v-1169h-203v92l-8 -4q-72 -61 -156 -94t-176 -33q-227 0 -372 189q-129 168 -130 395zM272 541q0 -61 14.5 -115.5t37.5 -99.5q47 -74 106 -116t127 -42
q113 0 219 90v-2q125 109 129 305v426q-94 6 -154.5 9t-82.5 3q-10 1 -21 1q-125 0 -231 -91v2q-68 -61 -107 -168q-20 -49 -28.5 -99t-8.5 -103z" />
    <glyph glyph-name="b" unicode="b" horiz-adv-x="1232" 
d="M104 4v1804h205v-618q66 4 120 7t95 3q47 0 87 -2t73 -6q201 -31 317 -186q113 -139 119 -351v-26q2 -12 2 -24t-2 -23v-22.5t-2 -20.5v2q-27 -283 -207 -437q-82 -72 -181 -104q-88 -29 -186 -29h-24q-76 2 -182.5 10.5t-233.5 22.5zM309 186q92 -8 153.5 -11t84.5 -3
h16q124 0 221 90q47 37 78 109.5t47 169.5q2 10 3 25.5t3 23.5v51q-16 181 -112 275q-86 85 -223 84q-16 0 -33 -1q-29 0 -53.5 -1t-51 -2t-58.5 -3t-75 -6v-801z" />
    <glyph glyph-name="c" unicode="c" horiz-adv-x="1120" 
d="M47 568.5v17.5v49q2 10 2 13v7q8 268 189 426v-2q139 121 407 121q53 0 132 -5t186 -13v-207q-123 14 -206 19t-132 5q-86 0 -151.5 -18t-106.5 -59q-98 -92 -111 -291q-2 -14 0 -47v-22.5t2 -20.5q16 -96 48 -166t77 -111q53 -43 113.5 -67.5t128.5 -24.5q22 -1 43 -1
q77 0 145 17q8 2 33.5 9.5t57.5 15.5t68 18.5t66 18.5v-135q2 -14 2 -40v-32q-80 -25 -153.5 -40t-138.5 -23q-27 -4 -52.5 -5.5t-48.5 -3.5q-233 0 -389 133q-180 156 -209 437q-2 16 -2 27.5z" />
    <glyph glyph-name="d" unicode="d" horiz-adv-x="1261" 
d="M43 545q0 31 2 59.5t6 57.5q39 252 217 407q150 131 400 131q41 0 96 -3t121 -7v618h202v-1808h-202v94q-2 -2 -3 -2t-3 -2l-2 -2q-72 -61 -157 -94t-177 -33q-227 0 -373 189q-127 170 -127 395zM250 541q0 -127 55 -215q90 -158 234 -158q53 0 108 24.5t109 65.5
q125 117 129 303q0 104 1 188.5t1 143.5v92q-102 8 -160.5 11t-81.5 3q-10 1 -20 1q-123 0 -230 -91q-68 -55 -108 -166q-37 -98 -37 -202z" />
    <glyph glyph-name="e" unicode="e" horiz-adv-x="1212" 
d="M46 646q0 5 3 13q12 123 66.5 228.5t142.5 185.5q72 61 156 95t176 34q39 0 74 -6q207 -37 327 -225q97 -158 97 -397q0 -18 -1 -37h-831q35 -195 125 -273q51 -43 112.5 -67.5t129.5 -24.5q22 -1 43 -1q77 0 145 17q8 2 33.5 9.5t57.5 15.5t68 18.5t66 18.5v-207
q-156 -47 -293 -63q-25 -4 -50 -5.5t-50 -3.5q-233 0 -389 133q-86 76 -138.5 185.5t-68.5 251.5v86zM270 739h600q-16 55 -41 95q-92 161 -233 161q-109 0 -215 -90q-41 -35 -67.5 -77t-43.5 -89z" />
    <glyph glyph-name="f" unicode="f" horiz-adv-x="761" 
d="M63 981v205h156v31q4 98 10.5 171.5t18.5 124.5q31 139 112 209q94 86 316 101v-195q-123 -10 -168 -49v2q-78 -72 -86 -371v-24h242v-205h-242v-983h-203v983h-156z" />
    <glyph glyph-name="g" unicode="g" horiz-adv-x="1318" 
d="M68 549q0 29 2 58.5t6 58.5q41 254 219 407q157 134 368 134q17 0 35 -1q143 -2 418 -30v-910q0 -39 1 -75.5t1 -73.5q0 -35 -1 -70t-1 -67q-4 -324 -201 -496v2q-100 -90 -268 -115q-47 -6 -112 -6q-51 0 -124 8.5t-171 24.5l36 201q197 -31 275 -31q147 0 244 88
q115 98 116 330v110l-8 -8q-72 -59 -155.5 -92t-176.5 -33q-229 0 -374 189q-129 168 -129 397zM276 545q0 -61 14.5 -116.5t37.5 -98.5q47 -78 106.5 -120t128.5 -42q55 0 111.5 23.5t107.5 66.5q129 117 129 305q0 109 1 192t1 142v96q-197 12 -239 13q-10 1 -20 1
q-124 0 -234 -92q-68 -61 -107 -165q-20 -51 -28.5 -101.5t-8.5 -103.5z" />
    <glyph glyph-name="h" unicode="h" horiz-adv-x="1355" 
d="M154 -2v1821h204v-740q20 18 43 36t43 32q121 70 256 70q39 0 74 -7h-2q70 -10 123 -26.5t94 -42t74.5 -64.5t62.5 -92q72 -125 76 -350v-635h-207v635q0 78 -13 139.5t-36 102.5q-37 59 -80 88.5t-127 44.5q-10 2 -17 2h-17q-106 0 -218 -94q-63 -57 -96 -125t-33 -152
v-643h-204z" />
    <glyph glyph-name="i" unicode="i" horiz-adv-x="499" 
d="M137 -2v1188h205v-1188h-205zM137 1253v205h205v-205h-205z" />
    <glyph glyph-name="j" unicode="j" horiz-adv-x="532" 
d="M-113 -438q123 10 164 47q45 35 65.5 127t22.5 239q0 240 1 429.5t1 334.5q0 147 -1 270.5t-1 176.5h205v-1215q-2 -182 -29 -297q-31 -131 -118 -211h2q-94 -82 -312 -100v199zM139 1253v205h205v-205h-205z" />
    <glyph glyph-name="k" unicode="k" horiz-adv-x="1091" 
d="M166 -2v1821h205v-1014q96 96 193.5 192.5t189.5 188.5h293l-533 -520q283 -283 565 -666h-256q-113 143 -225.5 273t-226.5 249v-524h-205z" />
    <glyph glyph-name="l" unicode="l" horiz-adv-x="532" 
d="M139 -4v1821h205v-1821h-205z" />
    <glyph glyph-name="m" unicode="m" horiz-adv-x="2134" 
d="M174 0v1186h203v-51q123 88 274 88q43 0 74 -6h-2q215 -33 315 -181q12 16 28.5 30.5t33.5 29.5v-2q141 129 321 129q43 0 74 -6h-2q246 -35 334 -203q35 -70 52 -163t17 -214v-639h-206v643q-2 80 -14.5 145.5t-35.5 112.5q-57 117 -210 117q-53 0 -105.5 -21.5
t-103.5 -68.5v-2q-72 -63 -97 -185q2 -20 2 -44.5v-57.5v-639h-206v643q-2 80 -14.5 145.5t-35.5 112.5q-57 117 -211 117q-53 0 -105 -21.5t-103 -68.5v-2q-27 -23 -44.5 -45.5t-29.5 -53.5v-825h-203z" />
    <glyph glyph-name="n" unicode="n" horiz-adv-x="1378" 
d="M154 0v1184h204v-101q143 131 340 131q23 0 39.5 -1t32.5 -3q70 -12 122 -28.5t94 -43t75.5 -64.5t64.5 -89q74 -127 74 -350v-635h-207v635q0 78 -13 138.5t-36 100.5q-35 63 -79 91t-128 43h2q-10 2 -20 3t-14 1q-55 0 -111.5 -24.5t-108.5 -67.5q-59 -55 -93 -126
t-34 -153v-641h-204z" />
    <glyph glyph-name="o" unicode="o" horiz-adv-x="1288" 
d="M63 590q0 250 164 432q166 184 385 184q221 0 387 -184q162 -184 162 -432q0 -145 -37 -259t-107.5 -194t-173 -122t-231.5 -42q-244 0 -399 170q-150 164 -150 447zM272 590q0 -193 97 -305q91 -107 245 -107q150 0 248 107h-2q47 59 72.5 134t25.5 171q0 166 -108 291
q-101 120 -234 120h-2q-131 0 -235 -120q-106 -125 -107 -291z" />
    <glyph glyph-name="p" unicode="p" horiz-adv-x="1292" 
d="M147 -637v1813q168 14 271.5 22t142.5 8q12 2 28.5 2h33.5q217 0 352 -123v2q178 -160 190 -428v-69v-25.5t-4 -25.5l2 4q-29 -279 -207 -437q-147 -133 -389 -133q-41 0 -95 3.5t-120 9.5v-623h-205zM352 186q92 -6 153.5 -9t84.5 -3q9 -1 18 -1q114 0 221 93
q90 84 125 285q2 10 3 20.5t1 14.5v4q2 23 2.5 34t0.5 17q-18 178 -117 275q-91 91 -231 91q-11 0 -23 -1q-29 0 -53.5 -1t-51 -2.5t-58.5 -4.5t-75 -7v-805z" />
    <glyph glyph-name="q" unicode="q" horiz-adv-x="1292" 
d="M55 549q0 31 2 61.5t6 55.5q20 123 75 227t143 180q152 134 369 134q18 0 36 -1q76 -2 178.5 -9t237.5 -23v-1811h-203v731q-4 -2 -8 -6q-143 -125 -334 -125q-229 0 -375 189q-127 166 -127 397zM264 545q0 -61 14.5 -116.5t36.5 -98.5q47 -78 106.5 -120t129.5 -42
q55 0 111.5 23.5t105.5 66.5q63 57 96 135t35 170v428q-94 6 -155.5 10.5t-84.5 4.5q-12 1 -24 1q-123 0 -227 -92q-35 -29 -62 -71.5t-47 -93.5q-35 -98 -35 -205z" />
    <glyph glyph-name="r" unicode="r" horiz-adv-x="688" 
d="M115 0v1184h204v-131q11 14 21 20q92 80 281 131v-209q-96 -31 -154 -80q-106 -90 -137 -280q-6 -35 -8.5 -52.5t-2.5 -21.5v-561h-204z" />
    <glyph glyph-name="s" unicode="s" horiz-adv-x="800" 
d="M37 944q49 254 319 254q211 0 353 -145l-19 -236q-135 137 -174 156q-31 16 -90 22q-35 6 -51 6q-111 0 -131 -104q-2 -10 -3 -16.5t-1 -12.5q0 -59 157 -155v-2q178 -109 248 -193q41 -45 59.5 -95t18.5 -104q0 -39 -8 -86q-29 -137 -131 -204q-92 -68 -222 -68
q-23 0 -45 3t-49 7q-63 14 -122.5 40t-110.5 65l4 252q195 -176 326 -176q59 0 94 34.5t49 100.5q4 20 4 24q0 70 -102 146l2 -2q-113 76 -228 151q-153 124 -153 271q0 37 6 67z" />
    <glyph glyph-name="t" unicode="t" horiz-adv-x="702" 
d="M31 979v205h155v180h203v-180h240v-205h-242v-176v-115.5t2 -114.5q2 -211 6 -247q12 -98 47 -131v2q20 -17 169 -17h48v-192q-88 0 -137 1t-65 1q-106 10 -160 59q-82 70 -102 221q-4 25 -5.5 105t-3.5 190q-2 53 -2 119v117v49v39.5v40v49.5h-153z" />
    <glyph glyph-name="u" unicode="u" horiz-adv-x="1251" 
d="M96 545v637h209v-639q2 -80 14.5 -145.5t32.5 -112.5q55 -117 211 -117q49 0 102.5 25.5t104.5 66.5q47 41 74 105v817h203v-1182h-203v53q-121 -88 -275 -88q-20 0 -35.5 1t-31.5 3q-244 33 -334 203q-72 139 -72 373z" />
    <glyph glyph-name="v" unicode="v" horiz-adv-x="1060" 
d="M0 1182h215l297 -822q72 205 145.5 414t143.5 408h215l-416 -1182h-174z" />
    <glyph glyph-name="w" unicode="w" horiz-adv-x="1892" 
d="M14 1182h215l299 -824q72 205 146 415t145 409h176l297 -822q72 205 145.5 414t143.5 408h215l-416 -1182h-174l-299 825q-72 -205 -146.5 -415.5t-142.5 -409.5h-176z" />
    <glyph glyph-name="x" unicode="x" horiz-adv-x="1179" 
d="M-31 0l463 596q-51 66 -110.5 142.5t-120 153.5t-117.5 151.5t-107 138.5h259l325 -420q82 104 164 211.5t160 208.5h260l-455 -588q51 -68 111.5 -144.5t122 -155.5t120 -155t107.5 -139h-256l-336 428q-82 -106 -166 -215t-166 -213h-258z" />
    <glyph glyph-name="y" unicode="y" horiz-adv-x="1073" 
d="M2 1182h217l297 -824q72 205 145.5 415t145.5 409h213l-553 -1577v2q-2 -4 -2 -6t-2 -7q-2 -4 -6 -16q-14 -33 -31.5 -62.5t-46.5 -56.5h2q-86 -84 -307 -114l-4 198q119 14 159 54q27 27 41 59q35 104 70 199.5t72 199.5q-47 131 -99.5 274.5t-105.5 289t-105.5 289
t-99.5 274.5z" />
    <glyph glyph-name="z" unicode="z" horiz-adv-x="1050" 
d="M0 0l639 977h-592v203l756 2h211l-639 -977h581v-205h-956z" />
    <glyph glyph-name="braceleft" unicode="{" horiz-adv-x="1085" 
d="M37 657v203h211q20 264 73.5 523t139.5 522h487v-203h-340q-170 -606 -164 -1034q6 -432 166 -1035h338v-204h-487q-70 223 -117 447t-76 435q-10 86 -16 172t-10 174h-205z" />
    <glyph glyph-name="bar" unicode="|" horiz-adv-x="573" 
d="M178 -571v2476h205v-2476h-205z" />
    <glyph glyph-name="braceright" unicode="}" horiz-adv-x="1085" 
d="M37 -367h338q80 305 121 562.5t45 474.5q2 426 -164 1032h-340v203h487q86 -262 139.5 -522.5t75.5 -522.5h209v-203h-205q-2 -88 -9 -174t-17 -172q-27 -213 -74 -435t-119 -447h-487v204z" />
    <glyph glyph-name="asciitilde" unicode="~" horiz-adv-x="983" 
d="M82 856q86 188 229 188q70 0 189 -55q109 -51 162 -51q88 0 151 109l76 -43q-94 -182 -230 -183q-70 0 -210 64q-92 41 -150 41q-80 0 -143 -117z" />
    <glyph glyph-name="uni00A0" unicode="&#xa0;" horiz-adv-x="956" 
 />
    <glyph glyph-name="dieresis" unicode="&#xa8;" horiz-adv-x="929" 
d="M172 1395v102h102v-102h-102zM623 1395v102h102v-102h-102z" />
    <glyph glyph-name="copyright" unicode="&#xa9;" horiz-adv-x="9033" 
d="M164 526l24 -18v74l-24 -21v-35zM215 489l27 -18v147l-27 -18v-111zM266 453l27 -21v223l-27 -18v-184zM317 414l27 -19v297l-27 -18v-260zM369 377l26 -19v373l-26 -18v-336zM422 338l24 18v412l-24 -18v-410v-2zM473 377l25 20v408l-25 -19v-409zM524 418l25 20v406
l-25 -21v-405zM575 459l27 20v402l-27 -19v-403zM604 1980h354l138 -448q4 12 135 448h375l145 -448q4 18 127 448h350l-289 -886h-399l-125 379l-123 -379h-399zM627 500l26 18v400l-26 -19v-399zM643 178l10 -6v37zM678 154l27 -21v236l-27 -80v-135zM678 539l27 20v397
l-27 -20v-397zM729 115l27 -19v430l-27 -80v-331zM729 580l27 20v393l-27 -18v-395zM782 78l25 -19v971l-25 -18v-389q4 2 6 4q-2 -8 -6 -21v-528zM834 41l24 -18v1044l-24 -18v-1008zM885 4l24 -18v1095l-16 13l-8 -7v-1083zM936 -35l10 -6l17 12v1073l-27 19v-1098z
M987 -10l27 20v998l-27 18v-1036zM1038 29l27 20v920l-27 20v-960zM1090 68l26 20v410l-18 -15l18 60v389l-26 18v-882zM1143 106l24 21v408l-24 -19v-410zM1143 623l24 79v193l-24 18v-290zM1167 -199v-2v-2v4zM1194 -123v-98l25 -19v193zM1194 147l4 3l21 -64v485l-25 -18
v-406zM1194 784l23 74l-23 19v-93zM1245 -258l25 -18v886l-25 -20v-848zM1296 -295l27 -18v960l-27 -18v-924zM1348 -334l26 -18v1036l-26 -18v-1000zM1399 -371l16 -10l10 6v1084l-8 4l-4 2l-14 -13v-1073zM1450 -356l27 18v1008l-27 20v-1046zM1503 -319l25 18v934l-25 18
v-970zM1554 -283l25 21v858l-25 18v-897zM1606 -23v-221l24 19v125zM1606 61l24 80v416l-24 21v-517zM1614 860l16 -51v61zM1657 133l26 -18v405l-26 19v-406zM1657 -176v-31l8 6zM1657 727l26 -80v262l-26 -18v-164zM1708 94l27 -18v407l-27 19v-408zM1708 567l27 -80v459
l-27 -18v-361zM1759 55l27 -18v946l-27 -18v-910zM1810 16l27 -18v1022l-27 -19v-985zM1862 -23l24 -18l2 2v1098l-26 -19v-1063zM1915 -20l24 18v1096h-2l-22 -17v-1097zM1966 16l25 21v1018l-25 18v-1057zM2017 55l25 19v944l-25 18v-981zM2068 92l27 19v360l-27 80v-459z
M2068 608q6 -4 27 -20v393l-27 18v-391zM2120 129l26 18v166l-26 78v-262zM2120 567l26 -20v395l-26 21v-396zM2171 166l18 14l-18 53v-67zM2171 526l27 -20v399l-27 19v-398zM2222 485l27 -20v403l-27 19v-402zM2275 444l25 -20v405l-25 21v-406zM2327 403l24 -20v410
l-24 18v-408zM2378 365l24 -21v412l-24 18v-409zM2429 354l27 19v346l-27 18v-383zM2480 391l27 19v270l-27 18v-307zM2531 428l27 18v197l-27 19v-234zM2583 465l26 18v123l-26 19v-160zM2636 504l24 18v45l-24 21v-84zM2687 541l6 4l-6 4v-8zM2957 764v49h441v-49h-197
v-709h-47v709h-197zM3432 305v297h50v-297q0 -219 159 -219q53 0 103.5 35t68.5 88v393h47v-547h-47v62q-72 -78 -168 -78q-133 0 -180 90q-33 63 -33 176zM4033 -268v870q141 12 184 12h13h16q111 0 177 -69.5t70 -179.5q0 -6 2 -17q0 -14 -2 -41q-12 -121 -83.5 -192.5
t-192.5 -71.5q-47 0 -137 8v-319h-47zM4080 98q82 -6 149 -10q178 -8 215 213q4 28 2 55q-14 221 -217 213q-86 -4 -149 -10v-461zM4831 813h51l189 -666l188 666h51l189 -666l188 666h51l-215 -756h-51l-188 664l-187 -664h-51zM5784 305q0 154 106 246q76 66 184 61
q56 -4 187 -14v-541h-47v95q-20 -29 -52 -58q-68 -57 -151 -57q-102 0 -168 84q-59 78 -59 184zM5833 305q0 -74 30 -125q57 -96 144 -96q90 0 147.5 69.5t59.5 159.5v244q-70 4 -150 8q-104 6 -172 -78q-59 -76 -59 -182zM6416 55v547h47v-96q78 113 201 112q78 0 131 -34
q97 -62 97 -234v-295h-50v295q0 145 -75 195q-43 27 -99 26q-84 0 -144.5 -66.5t-60.5 -150.5v-299h-47zM6695 1094v39l194 204q96 100 97 168q0 49 -34 79t-83 30q-104 0 -115 -107q-26 2 -53 4q35 141 172 142q68 0 115 -40t47 -108q0 -78 -121 -202l-164 -170l70 2
q199 6 219 0v-41h-344zM6998 305q0 135 80 220t211 85q49 0 139 -8v320h47v-867h-47v97q-20 -31 -51 -58q-66 -57 -152 -57q-102 0 -168 84q-59 78 -59 184zM7049 303q0 -70 31 -123q55 -96 143 -96t146.5 69.5t58.5 159.5v244q-66 4 -149 8q-104 6 -170 -78
q-59 -76 -60 -184zM7156 1366q0 111 71.5 199t180.5 88q106 0 177.5 -88t71.5 -199q0 -127 -59 -203q-66 -82 -190 -82q-123 0 -191 84q-61 78 -61 201zM7203 1366q0 -102 51 -166q55 -72 154 -72q98 0 153 72q49 66 49 166q0 90 -57 165t-145 75t-146.5 -75t-58.5 -165z
M7584 307v21v10v13v9q10 117 98 193q68 59 150 59q115 0 182 -104q49 -80 45 -178h-428v-6q0 -8 4 -25q35 -209 213 -211q61 -2 104 8q18 4 78 21v-45q-94 -29 -172 -29q-119 -2 -189.5 69.5t-84.5 194.5zM7633 377h375q-4 51 -29 90q-57 98 -143 98q-76 0 -133.5 -56
t-69.5 -132zM7764 1366q0 111 71.5 199t180.5 88t180.5 -88t71.5 -199q0 -127 -62 -203q-66 -82 -190 -82q-121 0 -189 84q-63 78 -63 201zM7813 1366q0 -102 49 -166q55 -72 154 -72q98 0 153 72q52 66 52 166q0 90 -56 162q-61 78 -149 78q-86 0 -144.5 -75t-58.5 -165z
M8182 55v549h47v-123q55 94 153 123v-49q-123 -43 -147 -199q-6 -35 -6 -43v-258h-47zM8358 1141v51l260 448h74v-462h80v-37h-80v-160h-45v160h-289zM8397 1180h248v385q0 12 2 41h-2q-6 -14 -11 -25zM8458 475q0 14 2 29q20 106 135 106q96 0 150 -57l-4 -43
q-45 45 -105 53q-18 4 -30 4q-80 0 -97 -75q-2 -14 -2 -21q0 -47 95 -104q151 -95 151 -177q0 -70 -43 -111.5t-112 -41.5q-80 0 -138 43l2 53q61 -55 138 -55q104 0 104 108q0 51 -63 97q-14 10 -119 79q-63 51 -64 113z" />
    <glyph glyph-name="uni00AD" unicode="&#xad;" horiz-adv-x="772" 
d="M74 541v200h598v-200h-598z" />
    <glyph glyph-name="acute" unicode="&#xb4;" horiz-adv-x="645" 
d="M145 1423l330 164l45 -88l-330 -164z" />
    <glyph glyph-name="circumflex" unicode="&#x2c6;" horiz-adv-x="690" 
d="M63 1434l287 192l289 -192l-55 -84l-234 155l-231 -155z" />
    <glyph glyph-name="tilde" unicode="&#x2dc;" horiz-adv-x="972" 
d="M98 1401q86 188 230 188q70 0 188 -55q109 -51 162 -51q88 0 151 108l76 -43q-94 -182 -229 -182q-70 0 -211 64q-92 41 -150 40q-80 0 -143 -116z" />
    <glyph glyph-name="afii10023" unicode="&#x401;" horiz-adv-x="1089" 
d="M115 0v1636h878v-211h-667v-434h667v-209h-667v-575h665v-207h-876zM303 1755v103h103v-103h-103zM754 1755v103h102v-103h-102z" />
    <glyph glyph-name="afii10052" unicode="&#x403;" horiz-adv-x="1105" 
d="M158 2v1636h880v-208h-671v-1428h-209zM406 1778l329 164l45 -89l-329 -163z" />
    <glyph glyph-name="afii10054" unicode="&#x405;" horiz-adv-x="1146" 
d="M104 133v238q111 -74 204 -120t165 -61l-2 3q25 -4 45.5 -7.5t36.5 -3.5q201 0 244 205l-2 -4q2 10 3 19.5t1 15.5q0 74 -88 162q-23 23 -77 65.5t-140 106.5q-113 82 -174.5 129t-73.5 57q-135 129 -135 287q0 18 2 38.5t8 45.5v-2q41 190 176 280q53 39 118.5 56.5
t139.5 17.5q61 0 127 -14q125 -25 260 -125v-254q-94 80 -169 127t-130 57q-23 4 -44 7t-44 3q-72 0 -125 -35h2q-82 -53 -102 -165q-2 -12 -3 -23.5t-1 -21.5q0 -43 41 -91q29 -29 79 -72.5t127 -101.5q129 -94 212 -162.5t124 -113.5q104 -109 105 -240q0 -27 -3 -51.5
t-7 -52.5q-31 -186 -168 -269v3q-129 -84 -306 -84q-35 0 -62.5 2t-53.5 6q-86 18 -164 54t-146 89z" />
    <glyph glyph-name="afii10055" unicode="&#x406;" 
d="M162 -2v1640h211v-1640h-211z" />
    <glyph glyph-name="afii10056" unicode="&#x407;" 
d="M6 1735v209h209v-209h-209zM172 6v1641h211v-1641h-211zM313 1735v209h209v-209h-209z" />
    <glyph glyph-name="afii10057" unicode="&#x408;" horiz-adv-x="577" 
d="M-88 -31q66 6 108.5 17.5t65.5 31.5q47 39 68.5 137.5t23.5 256.5q0 240 1 431t1 339v143.5t-1 131t-1 108.5v73h213v-1232q-2 -195 -29 -314q-33 -141 -124 -223q-49 -41 -130 -67.5t-196 -34.5v202z" />
    <glyph glyph-name="afii10059" unicode="&#x40a;" horiz-adv-x="2217" 
d="M143 0v1634h211v-643h654v641l213 6v-495q72 4 127 6t94 2q225 0 395 -131q98 -76 153.5 -173t65.5 -216v-18.5t2 -22.5v-53q-2 -4 -2 -27q-4 -68 -19.5 -127t-47.5 -109h2q-20 -31 -53 -67.5t-80 -75.5q-86 -68 -191.5 -97.5t-228.5 -21.5q-41 0 -145.5 6.5t-280.5 22.5
l-4 741h-654v-782h-211zM1221 231q78 -8 135 -11t110 -3q78 -4 144.5 17.5t124.5 64.5q47 41 76.5 101.5t33.5 138.5q4 16 0 47v-4q-2 16 -6 47q-12 66 -43 123t-82 98q-63 53 -124.5 76.5t-123.5 19.5h-30.5t-44 -2t-68.5 -4t-102 -8v-268q-4 -23 0 -43v-390z" />
    <glyph glyph-name="afii10061" unicode="&#x40c;" horiz-adv-x="1323" 
d="M145 0h209v709q174 -158 347 -335t354 -374h278q-229 256 -444 478t-416 409l844 749h-316q-160 -141 -323.5 -286.5t-323.5 -288.5v575h-209v-1636zM459 1778l329 164l46 -89l-330 -163z" />
    <glyph glyph-name="afii10062" unicode="&#x40e;" horiz-adv-x="1662" 
d="M102 1632h254l471 -923q123 229 245 462.5t239 460.5h235l-829 -1628v-2q-4 -8 -17 -25q-41 -74 -116 -120q-131 -82 -412 -109l-12 203q94 6 156.5 20.5t103.5 36.5q25 20 42 34.5t36 31.5q57 106 105 199.5t104 201.5q-72 137 -148 283.5t-154.5 296t-155.5 296
t-147 281.5zM516 1894l111 43q27 -66 84 -105.5t129 -39.5t129 40t84 105l110 -43q-45 -111 -136 -159.5t-187 -48.5t-187.5 49t-136.5 159z" />
    <glyph glyph-name="afii10017" unicode="&#x410;" horiz-adv-x="1355" 
d="M-18 0l575 1636h180l588 -1636h-221l-193 539h-518q-47 -129 -96 -270.5t-94 -268.5h-221zM465 750h371q-27 74 -48.5 132t-43 116.5t-44 121t-53.5 146.5q-23 -66 -45 -127.5t-43.5 -124t-45.5 -127t-48 -137.5z" />
    <glyph glyph-name="afii10018" unicode="&#x411;" horiz-adv-x="1318" 
d="M170 41v1610h1020v-199h-811v-309q72 4 127 6t94 2q225 0 395 -131q195 -152 219 -389v-18.5t3 -22.5v-47l-5 -17q2 4 2 -16q-4 -68 -19 -127t-48 -109h2q-20 -31 -53 -67.5t-80 -75.5q-86 -68 -191.5 -97.5t-228.5 -21.5q-41 0 -146.5 6.5t-279.5 22.5zM379 231
q78 -8 135 -11t109 -3q78 -4 145.5 17.5t124.5 64.5q47 41 76.5 101.5t34.5 138.5q4 16 0 47v-4q-2 16 -7 47q-12 66 -42.5 123t-84.5 98q-61 53 -123.5 76.5t-123.5 19.5h-30t-44.5 -2t-67.5 -4t-102 -8v-268q-4 -23 0 -43v-390z" />
    <glyph glyph-name="afii10019" unicode="&#x412;" horiz-adv-x="1222" 
d="M98 8l2 1622q80 10 162 16.5t168 6.5h56.5t56.5 -2q78 -4 151.5 -28t139.5 -67q158 -113 170 -286q6 -115 -24 -205t-93 -150q41 -20 72.5 -43.5t62.5 -54.5q53 -55 83 -126.5t34 -155.5q10 -244 -97 -379q-141 -172 -489 -183q-102 -2 -214 6.5t-241 28.5zM307 190
q121 -8 207 -6q270 10 363 111q33 37 49 93t12 136v-2q-10 119 -119 193h2q-104 68 -229 67h-285v-592zM307 991h146q358 0 346 262q-4 84 -103 140q-88 55 -207 59q-29 0 -53 1t-47 1h-27.5h-15.5h-14h-25v-463z" />
    <glyph glyph-name="afii10020" unicode="&#x413;" horiz-adv-x="1105" 
d="M158 2v1636h880v-208h-671v-1428h-209z" />
    <glyph glyph-name="afii10021" unicode="&#x414;" horiz-adv-x="1705" 
d="M121 -190v399h112q59 170 122 351t127.5 363.5t127 362.5t121.5 350h180l527 -1427h112v-399h-209v190h-1009v-190h-211zM453 209h749q-53 143 -98 270t-89 252t-90 255t-102 280q-47 -137 -93 -266.5t-91 -257.5t-91 -260t-95 -273z" />
    <glyph glyph-name="afii10022" unicode="&#x415;" horiz-adv-x="1089" 
d="M115 0v1636h878v-211h-667v-434h667v-209h-667v-575h665v-207h-876z" />
    <glyph glyph-name="afii10024" unicode="&#x416;" horiz-adv-x="2297" 
d="M29 0q229 258 444 480t414 407q-96 86 -206 183t-220.5 195.5t-218 193.5t-199.5 177h317l646 -575v575h211v-575q160 143 322.5 288.5t322.5 286.5h317l-844 -749q203 -188 416 -408.5t442 -478.5h-278q-178 197 -352 374t-346 335v-709h-211v707q-174 -162 -346.5 -335
t-352.5 -372h-278z" />
    <glyph glyph-name="afii10025" unicode="&#x417;" horiz-adv-x="1007" 
d="M20 35l37 205q197 -31 283 -31q164 0 250 88q20 16 32.5 43t22.5 55q8 27 12.5 73t8.5 105q-4 111 -58 175q-53 66 -155 65q-14 0 -29.5 1t-28.5 1l-69 -2v219h112q33 0 59.5 2t47.5 8v-2q86 29 86 140q0 137 -144 137q-164 0 -229 -187q-10 4 -26.5 10.5t-34 12.5
t-32.5 12t-22 9h4q-25 10 -40 17t-44 36q106 295 422 295q111 0 191 -37t125 -113q47 -82 47 -186q0 -170 -131 -264q157 -109 157 -330q0 -336 -159 -467h2q-72 -63 -170 -93t-223 -30q-49 0 -124 8t-180 25z" />
    <glyph glyph-name="afii10026" unicode="&#x418;" horiz-adv-x="1531" 
d="M176 1640h209v-1198q184 299 373.5 602.5t369.5 595.5h185v-1638h-209v1196q-186 -299 -373.5 -599t-370.5 -597h-182z" />
    <glyph glyph-name="afii10027" unicode="&#x419;" horiz-adv-x="1531" 
d="M203 1698h209v-1198q184 299 373.5 602t369.5 596h184v-1639h-209v1196q-186 -299 -373.5 -599t-369.5 -597h-182zM373 1860l209 82q29 -70 73.5 -112t92.5 -42q49 0 94 42t71 112l211 -82q-31 -76 -73.5 -129.5t-93 -88t-104.5 -51t-105 -16.5q-53 0 -106.5 16.5
t-104 51t-92.5 88t-72 129.5z" />
    <glyph glyph-name="afii10028" unicode="&#x41a;" horiz-adv-x="1318" 
d="M145 0v1636h209v-575q160 143 324 288.5t323 286.5h316l-844 -749q201 -186 416 -408.5t444 -478.5h-278q-180 197 -353.5 374t-347.5 335v-709h-209z" />
    <glyph glyph-name="afii10029" unicode="&#x41b;" horiz-adv-x="1472" 
d="M43 -2l588 1634h180l573 -1634h-221l-444 1262q-111 -313 -227.5 -634t-227.5 -628h-221z" />
    <glyph glyph-name="afii10030" unicode="&#x41c;" horiz-adv-x="1679" 
d="M162 2v1636h188l463 -895q111 221 225.5 449.5t225.5 445.5h186v-1636h-209v1118q-53 -109 -108.5 -222.5t-110.5 -226t-107.5 -222t-99.5 -207.5l-442 891v-1131h-211z" />
    <glyph glyph-name="afii10031" unicode="&#x41d;" horiz-adv-x="1376" 
d="M129 0v1634h209v-643h653v643h209v-1634h-209v782h-653v-782h-209z" />
    <glyph glyph-name="afii10032" unicode="&#x41e;" horiz-adv-x="1646" 
d="M76 815q0 352 190 590h-2q199 250 516 250t531 -250q205 -238 205 -590q0 -350 -205 -588q-213 -248 -531 -247q-317 0 -516 249h2q-190 238 -190 586zM287 815q0 -131 35.5 -246.5t99.5 -206.5q66 -86 156.5 -133t201.5 -47q225 0 373 180q154 190 154 453
q0 135 -39 248t-115 207q-145 178 -373 178q-229 0 -358 -178q-135 -178 -135 -455z" />
    <glyph glyph-name="afii10033" unicode="&#x41f;" horiz-adv-x="1466" 
d="M98 0v1638h1209v-1638h-211v1430h-789v-1430h-209z" />
    <glyph glyph-name="afii10034" unicode="&#x420;" horiz-adv-x="1343" 
d="M170 -6v1642q172 14 278.5 21.5t147.5 7.5q123 6 228.5 -23.5t191.5 -97.5q47 -39 79.5 -74.5t53.5 -68.5h-2q33 -49 48 -109.5t19 -128.5q0 -20 3 -24v-52q-2 -14 -2.5 -24t-0.5 -19q-25 -236 -219 -389q-170 -131 -395 -131q-39 0 -94 2t-127 9v-541h-209zM379 743
q98 -8 159.5 -11t84.5 -3q127 -6 247 94q53 41 84 98.5t43 125.5q2 10 3 25t4 22v-4q2 33 0 47q-4 78 -34 138t-77 101q-57 43 -125 64.5t-145 17.5q-53 0 -109.5 -3t-134.5 -9v-391q-4 -23 0 -43v-269z" />
    <glyph glyph-name="afii10035" unicode="&#x421;" horiz-adv-x="1236" 
d="M57 748v65l2 68q6 147 32 259.5t75 196.5q31 53 77 103.5t113 101.5q160 113 437 113q25 0 62.5 -2t81.5 -4t92 -6.5t93 -6.5v-213q-125 14 -211 19.5t-139 5.5q-174 0 -274 -72q-51 -37 -85 -73.5t-55 -71.5q-70 -131 -88 -373v-88q14 -244 88 -371q39 -72 140 -147
q49 -35 118.5 -53.5t155.5 -18.5q53 0 139 6.5t211 20.5v-211q-121 -10 -201.5 -16.5t-127.5 -6.5q-137 0 -248 30t-189 85q-63 47 -111 99.5t-79 103.5q-47 84 -73.5 198.5t-35.5 258.5z" />
    <glyph glyph-name="afii10036" unicode="&#x422;" horiz-adv-x="1142" 
d="M51 1427v211h1002v-211h-396v-1427h-211v1427h-395z" />
    <glyph glyph-name="afii10037" unicode="&#x423;" horiz-adv-x="1662" 
d="M102 1632h254l471 -923q123 229 245 462.5t239 460.5h235l-829 -1628v-2q-4 -8 -17 -25q-41 -74 -116 -120q-131 -82 -412 -109l-12 203q94 6 156.5 20.5t103.5 36.5q25 20 42 34.5t36 31.5q57 106 105 199.5t104 201.5q-72 137 -148 283.5t-154.5 296t-155.5 296
t-147 281.5z" />
    <glyph glyph-name="afii10038" unicode="&#x424;" horiz-adv-x="1398" 
d="M55 836q0 -285 166 -480q172 -201 447 -200q274 0 460 198q178 197 179 482q0 279 -179 475q-188 202 -460 202q-274 0 -447 -204v2q-166 -188 -166 -475zM252 836q0 213 113 350q113 141 303 141t313 -141q129 -145 129 -350q0 -207 -129 -355q-123 -139 -313 -139
t-303 139q-113 137 -113 355zM565 -2v1640h211v-1640h-211z" />
    <glyph glyph-name="afii10039" unicode="&#x425;" horiz-adv-x="1372" 
d="M8 1638h246l397 -632q96 156 198.5 318.5t194.5 313.5h246l-518 -829q57 -92 123 -196.5t132.5 -210t131 -209t119.5 -191.5h-246l-381 608q-94 -150 -192.5 -306.5t-190.5 -301.5h-245l503 805q-59 94 -125.5 201.5t-135 216t-134 215t-123.5 198.5z" />
    <glyph glyph-name="afii10040" unicode="&#x426;" horiz-adv-x="1705" 
d="M100 0v1638h209v-1429h789v1429h211v-1429h94v-399h-209v190h-1094z" />
    <glyph glyph-name="afii10041" unicode="&#x427;" horiz-adv-x="1355" 
d="M150 1214v422h212v-422q0 -166 50 -247q18 -31 37.5 -54.5t44 -39t56.5 -26.5t75 -18h-2q10 -2 18 -2h18q117 0 224 95q133 117 133 284v432h209v-1640h-209v760q-23 -20 -45.5 -38t-44.5 -32q-121 -72 -260 -72q-20 0 -40 1t-36 4q-72 10 -125 27.5t-96 45t-77 66.5
t-65 94q-78 131 -77 360z" />
    <glyph glyph-name="afii10042" unicode="&#x428;" horiz-adv-x="1880" 
d="M92 2v1634h209v-1425l508 -2v1427h209v-1427h504q0 348 -1 714.5t-1 710.5h206v-1634z" />
    <glyph glyph-name="afii10043" unicode="&#x429;" horiz-adv-x="2187" 
d="M94 2v1634h209v-1425l508 -2v1427h209v-1427h504q0 348 -1 714.5t-1 710.5h207v-1425h96v-399h-211v190q-373 0 -762 1t-758 1z" />
    <glyph glyph-name="afii10044" unicode="&#x42a;" horiz-adv-x="1536" 
d="M92 1427v211h471v-495q70 4 125 6t96 2q223 0 394 -131q197 -152 219 -389v-18.5t2 -22.5v-47l-4 -17q2 4 2 -16q-4 -68 -19.5 -127t-46.5 -109h2q-20 -31 -54 -67.5t-81 -75.5q-84 -68 -190.5 -97.5t-227.5 -21.5q-41 0 -146.5 6.5t-281.5 22.5v1386h-260zM563 231
q78 -8 134.5 -11t109.5 -3q78 -4 145.5 17.5t122.5 64.5q100 86 111 240q4 16 0 47v-4q-2 16 -6 47q-10 66 -42 123t-83 98q-61 53 -124 76.5t-124 19.5h-30.5t-43 -2t-67.5 -4t-103 -8v-268q-4 -23 0 -43v-390z" />
    <glyph glyph-name="afii10045" unicode="&#x42b;" horiz-adv-x="1705" 
d="M170 41v1597h209v-495q72 4 127 6t94 2q225 0 395 -131q195 -152 219 -389v-18.5t3 -22.5v-47l-5 -17q2 4 2 -16q-4 -68 -19 -127t-48 -109h2q-20 -31 -53 -67.5t-80 -75.5q-86 -68 -191.5 -97.5t-228.5 -21.5q-41 0 -146.5 6.5t-279.5 22.5zM379 231q78 -8 135 -11
t109 -3q78 -4 145.5 17.5t124.5 64.5q47 41 76.5 101.5t34.5 138.5q4 16 0 47v-4q-2 16 -7 47q-12 66 -42.5 123t-84.5 98q-61 53 -123.5 76.5t-123.5 19.5h-30t-44.5 -2t-67.5 -4t-102 -8v-268q-4 -23 0 -43v-390zM1327 -2v1640h209v-1640h-209z" />
    <glyph glyph-name="afii10046" unicode="&#x42c;" horiz-adv-x="1339" 
d="M170 41v1597h209v-495q72 4 127 6t94 2q225 0 395 -131q195 -152 219 -389v-18.5t3 -22.5v-47l-5 -17q2 4 2 -16q-4 -68 -19 -127t-48 -109h2q-20 -31 -53 -67.5t-80 -75.5q-86 -68 -191.5 -97.5t-228.5 -21.5q-41 0 -146.5 6.5t-279.5 22.5zM379 231q78 -8 135 -11
t109 -3q78 -4 145.5 17.5t124.5 64.5q47 41 76.5 101.5t34.5 138.5q4 16 0 47v-4q-2 16 -7 47q-12 66 -42.5 123t-84.5 98q-61 53 -123.5 76.5t-123.5 19.5h-30t-44.5 -2t-67.5 -4t-102 -8v-268q-4 -23 0 -43v-390z" />
    <glyph glyph-name="afii10047" unicode="&#x42d;" horiz-adv-x="1230" 
d="M57 -4v211q125 -14 212 -20.5t139 -6.5q182 0 272 72q51 37 86 75t55 72q72 127 88 371v88q-18 250 -88 373q-20 35 -54 71.5t-85 73.5q-96 72 -274 72q-51 0 -138.5 -5t-212.5 -20v213q45 2 93.5 6.5t93.5 6.5t81.5 4t61.5 2q274 0 434 -113q137 -100 193 -205
q96 -162 108 -454v-99l-2 -36q-10 -287 -106 -457q-29 -47 -80 -102.5t-111 -100.5q-78 -55 -188.5 -85t-247.5 -30q-47 0 -128 6.5t-202 16.5zM150 705v208h874v-208h-874z" />
    <glyph glyph-name="afii10048" unicode="&#x42e;" horiz-adv-x="2072" 
d="M190 -2v1640h209v-725h197v-208h-197v-707h-209zM479 815q0 352 191 590q195 250 514 250q317 0 532 -250q203 -236 203 -590q0 -352 -203 -588q-217 -248 -532 -247q-319 0 -514 249q-190 238 -191 586zM690 815q0 -131 36 -246.5t99 -206.5q68 -86 158 -133t201 -47
q225 0 372 180q154 186 154 453q0 266 -154 455q-145 178 -372 178q-225 0 -359 -178q-135 -178 -135 -455z" />
    <glyph glyph-name="afii10049" unicode="&#x42f;" horiz-adv-x="1284" 
d="M-35 6q66 74 142.5 158t157.5 170t162 170t155 158q-188 41 -284.5 152.5t-113.5 326.5q2 115 30 203t87 149q145 154 469 162q66 2 162 -4t219 -23v-1628h-211v645q-18 -2 -35.5 -2t-34.5 -2q-158 -147 -315.5 -307t-310.5 -328h-279zM399 1145q2 -172 125 -238
q100 -55 314 -55q16 4 34 0h7h17h10h11.5t22.5 2v586q-39 4 -69.5 5t-61.5 -1q-252 -10 -342 -101q-68 -66 -68 -198z" />
    <glyph glyph-name="afii10065" unicode="&#x430;" horiz-adv-x="1273" 
d="M63 545q0 31 3.5 59.5t7.5 57.5q39 252 217 407v-2q163 149 401 133q78 -2 179.5 -8t236.5 -23v-1169h-203v92l-8 -4q-72 -61 -156 -94t-176 -33q-227 0 -372 189q-129 168 -130 395zM272 541q0 -61 14.5 -115.5t37.5 -99.5q47 -74 106 -116t127 -42q113 0 219 90v-2
q125 109 129 305v426q-94 6 -154.5 9t-82.5 3q-137 8 -252 -90v2q-68 -61 -107 -168q-20 -49 -28.5 -99t-8.5 -103z" />
    <glyph glyph-name="afii10066" unicode="&#x431;" horiz-adv-x="1089" 
d="M63 528q0 4 1.5 10.5t1.5 10.5q2 10 2 12v6l14 281q23 328 225 485v-2q145 117 391 103q45 -4 118 -14.5t171 -33.5l-41 -196q-92 18 -159.5 29.5t-114.5 11.5q-182 10 -279 -98q-63 -70 -90 -179q113 72 246 66h2q186 -8 315 -172h-2q125 -160 117 -365
q-12 -242 -140 -369.5t-345 -117.5h2q-213 10 -332 160q-113 141 -103 374v-2zM272 522q-6 -139 56.5 -226t177.5 -91q109 -8 184 69q74 79 84 222q6 123 -69 219q-66 88 -166 98q-98 0 -177 -82q-43 -45 -64.5 -97t-25.5 -112z" />
    <glyph glyph-name="afii10067" unicode="&#x432;" horiz-adv-x="989" 
d="M70 4l2 1159q137 18 270 19h43t43 -2q61 -4 121.5 -20.5t109.5 -47.5q66 -39 101 -94t37 -119q4 -78 -12.5 -138.5t-61.5 -103.5q25 -12 43.5 -27.5t38.5 -31.5q96 -88 98 -211q4 -86 -17.5 -156.5t-62.5 -119.5q-55 -57 -152.5 -92t-232.5 -39q-84 -2 -174 5t-194 19z
M266 168q39 -2 74 -3t66 1h2q205 0 270 67q45 49 43 146q-6 68 -84 115q-72 49 -170 45h-201v-371zM266 729h92q266 -8 254 158q-4 45 -67 78q-70 37 -158 41h-55h-23.5h-11.5h-10h-21v-277z" />
    <glyph glyph-name="afii10068" unicode="&#x433;" horiz-adv-x="874" 
d="M156 2v1172h655v-201h-451v-971h-204z" />
    <glyph glyph-name="afii10069" unicode="&#x434;" horiz-adv-x="1396" 
d="M123 -186v391h108q43 115 88.5 236.5t91.5 245.5t90 246t85 236h176l375 -964h112v-391h-205v186h-716v-186h-205zM449 205h460q-33 86 -60.5 156.5t-55 140t-56 145.5t-63.5 170q-29 -78 -56.5 -151.5t-55 -148.5t-55.5 -151.5t-58 -160.5z" />
    <glyph glyph-name="afii10070" unicode="&#x435;" horiz-adv-x="1210" 
d="M46 643q-1 6 3 16q12 123 66.5 228.5t142.5 185.5q72 61 156 95t176 34q39 0 74 -6q207 -37 327 -225q104 -170 96 -434h-831q35 -195 125 -273q51 -43 112.5 -67.5t129.5 -24.5q102 -6 188 16q8 2 33.5 9.5t57.5 15.5t68 18.5t66 18.5v-207q-156 -47 -293 -63
q-25 -4 -50 -5.5t-50 -3.5q-233 0 -389 133q-86 76 -138.5 185.5t-68.5 251.5v86q0 10 -1 16zM270 739h600q-16 55 -41 95q-92 161 -233 161q-109 0 -215 -90q-41 -35 -67.5 -77t-43.5 -89z" />
    <glyph glyph-name="afii10072" unicode="&#x436;" horiz-adv-x="1812" 
d="M49 0q147 199 288.5 363.5t276.5 302.5q-59 57 -128.5 125.5t-141.5 138t-139.5 136.5t-120.5 120h291l383 -379v381h205v-383q98 96 195 192.5t190 188.5h290l-528 -522q139 -141 278.5 -305t282.5 -359h-256q-111 143 -224.5 273t-227.5 249v-524h-205v524
q-119 -121 -230.5 -249t-222.5 -273h-256z" />
    <glyph glyph-name="afii10073" unicode="&#x437;" horiz-adv-x="1007" 
d="M25 -246l38 201q94 -16 163 -22.5t112 -6.5q160 0 242 84q20 16 32.5 42t22.5 54q6 27 11 71t9 104q-4 109 -57 168q-51 63 -152 65q-14 0 -28.5 1t-26.5 1l-69 -2v211h110q63 0 105 12v-2q84 27 84 135q0 133 -142 134q-156 0 -221 -183q-10 4 -25.5 10.5t-33 12.5
t-32.5 11t-22 9h5q-23 10 -38.5 16.5t-43.5 34.5q106 287 409 287q219 0 309 -145q45 -80 45 -180q0 -166 -126 -259q151 -106 151 -321q0 -324 -154 -453h3q-70 -61 -166.5 -90.5t-219.5 -29.5q-92 0 -294 30z" />
    <glyph glyph-name="afii10074" unicode="&#x438;" horiz-adv-x="1323" 
d="M176 1176h205v-768q135 195 270 386t271 382h178v-1174h-203v764q-133 -186 -273.5 -384t-269.5 -380h-176z" />
    <glyph glyph-name="afii10075" unicode="&#x439;" horiz-adv-x="1323" 
d="M207 1231h205v-768q135 195 270 386l270 382h178v-1174h-202v764q-133 -186 -273.5 -383.5t-269.5 -380.5h-176zM309 1389l183 75q29 -53 67.5 -92t83.5 -39q47 0 86 39t68 92l182 -75q-53 -119 -140 -187.5t-196 -68.5q-66 0 -118 23.5t-93 60t-71.5 83t-51.5 89.5z" />
    <glyph glyph-name="afii10076" unicode="&#x43a;" horiz-adv-x="1085" 
d="M166 -2v1190h205v-383q96 96 193.5 192.5t189.5 188.5h293l-533 -520q283 -283 565 -666h-256q-113 143 -225.5 273t-226.5 249v-524h-205z" />
    <glyph glyph-name="afii10077" unicode="&#x43b;" horiz-adv-x="1060" 
d="M0 0l426 1182h174l416 -1182h-215l-289 821q-74 -205 -149.5 -413.5t-147.5 -407.5h-215z" />
    <glyph glyph-name="afii10078" unicode="&#x43c;" horiz-adv-x="1396" 
d="M164 2v1169h182l336 -596q86 152 171 300.5t167 295.5h180v-1169h-203v690q-39 -74 -81 -150.5t-82.5 -152.5t-79.5 -148.5t-72 -136.5l-315 590v-692h-203z" />
    <glyph glyph-name="afii10079" unicode="&#x43d;" horiz-adv-x="1144" 
d="M129 0v1171h205v-454h438v454h201v-1171h-201v512h-438v-512h-205z" />
    <glyph glyph-name="afii10080" unicode="&#x43e;" horiz-adv-x="1298" 
d="M63 590q0 250 164 432q166 184 385 184q221 0 387 -184q162 -184 162 -432q0 -145 -37 -259t-107.5 -194t-173 -122t-231.5 -42q-244 0 -399 170q-150 164 -150 447zM272 590q0 -193 97 -305q91 -107 245 -107q150 0 248 107h-2q47 59 72.5 134t25.5 171q0 166 -108 291
q-102 121 -236 120q-131 0 -235 -120q-106 -125 -107 -291z" />
    <glyph glyph-name="afii10081" unicode="&#x43f;" horiz-adv-x="1312" 
d="M100 0v1182h1014v-1182h-205v977h-604v-977h-205z" />
    <glyph glyph-name="afii10082" unicode="&#x440;" horiz-adv-x="1292" 
d="M147 -637v1813q168 14 271.5 22t142.5 8q12 2 28.5 2h33.5q217 0 352 -123v2q178 -160 190 -428v-69v-25.5t-4 -25.5l2 4q-29 -279 -207 -437q-147 -133 -389 -133q-41 0 -95 3.5t-120 9.5v-623h-205zM352 186q92 -6 153.5 -9t84.5 -3q123 -8 239 92q90 84 125 285
q2 10 3 20.5t1 14.5v4q2 23 2.5 34t0.5 17q-18 178 -117 275.5t-254 89.5q-29 0 -53.5 -1t-51 -2.5t-58.5 -4.5t-75 -7v-805z" />
    <glyph glyph-name="afii10083" unicode="&#x441;" horiz-adv-x="1122" 
d="M47 568.5v17.5v49q2 10 2 13v7q8 268 189 426v-2q139 121 407 121q53 0 132 -5t186 -13v-207q-123 14 -206 19t-132 5q-86 0 -151.5 -18t-106.5 -59q-98 -92 -111 -291q-2 -14 0 -47v-22.5t2 -20.5q16 -96 48 -166t77 -111q53 -43 113.5 -67.5t128.5 -24.5q102 -6 188 16
q8 2 33.5 9.5t57.5 15.5t68 18.5t66 18.5v-135q2 -14 2 -40v-32q-80 -25 -153.5 -40t-138.5 -23q-27 -4 -52.5 -5.5t-48.5 -3.5q-233 0 -389 133q-180 156 -209 437q-2 16 -2 27.5z" />
    <glyph glyph-name="afii10084" unicode="&#x442;" horiz-adv-x="1144" 
d="M57 969v202h975v-202h-385v-969h-205v969h-385z" />
    <glyph glyph-name="afii10085" unicode="&#x443;" horiz-adv-x="1073" 
d="M2 1182h217l297 -824q72 205 145.5 415t145.5 409h213l-553 -1577v2q-2 -4 -2 -6t-2 -7q-2 -4 -6 -16q-14 -33 -31.5 -62.5t-46.5 -56.5h2q-86 -84 -307 -114l-4 198q119 14 159 54q27 27 41 59q35 104 70 199.5t72 199.5q-47 131 -99.5 274.5t-105.5 289t-105.5 289
t-99.5 274.5z" />
    <glyph glyph-name="afii10086" unicode="&#x444;" horiz-adv-x="1292" 
d="M63 590q0 250 164 432q166 184 385 184q221 0 387 -184q162 -184 162 -432q0 -145 -37 -259t-107.5 -194t-173 -122t-231.5 -42q-244 0 -399 170q-150 164 -150 447zM272 590q0 -193 97 -305q91 -107 245 -107q150 0 248 107h-2q47 59 72.5 134t25.5 171q0 166 -108 291
q-102 121 -236 120q-131 0 -235 -120q-106 -125 -107 -291zM516 -25h201v-577h-201v577zM516 72h201v1032h-201v-1032zM516 1208v578h201v-578h-201z" />
    <glyph glyph-name="afii10087" unicode="&#x445;" horiz-adv-x="1179" 
d="M-31 0l463 596q-51 66 -110.5 142.5t-120 153.5t-117.5 151.5t-107 138.5h259l325 -420q82 104 164 211.5t160 208.5h260l-455 -588q51 -68 111.5 -144.5t122 -155.5t120 -155t107.5 -139h-256l-336 428q-82 -106 -166 -215t-166 -213h-258z" />
    <glyph glyph-name="afii10088" unicode="&#x446;" horiz-adv-x="1705" 
d="M102 0v1182h205v-977h604v977h205v-977h92v-391h-204v186h-902z" />
    <glyph glyph-name="afii10089" unicode="&#x447;" horiz-adv-x="1032" 
d="M90 811v356h189v-352q4 -119 32 -170q18 -35 46 -53.5t81 -28.5h23q78 0 143 58l-4 -3q82 74 82 191l8 358h189v-1169h-191v457q-8 -6 -18.5 -13.5t-18.5 -13.5q-90 -51 -188 -51q-23 0 -30 1t-23 3q-102 14 -161 52t-104 118q-53 92 -55 260z" />
    <glyph glyph-name="afii10090" unicode="&#x448;" horiz-adv-x="1400" 
d="M90 2v1190h205v-985l291 -2v987h205v-987h122l119 2q0 238 -1 493.5t-1 491.5h203v-1190h-1143z" />
    <glyph glyph-name="afii10091" unicode="&#x449;" horiz-adv-x="1490" 
d="M92 0v1192h205v-987h291v987h205v-987h239v987h205v-987h92v-391h-203v186h-1034z" />
    <glyph glyph-name="afii10092" unicode="&#x44a;" horiz-adv-x="1202" 
d="M68 989v182h387v-342q100 6 159 7q172 0 312 -97q158 -106 176 -282v-10.5t2 -16.5v-35l-6 -24q4 8 4 0q-4 -100 -55 -176q-37 -49 -105 -103q-66 -47 -150.5 -68.5t-179.5 -15.5q-14 0 -49 1t-82 4t-104.5 7.5t-118.5 8.5v960h-190zM455 201q53 -4 98 -6t80 -2
q59 -4 109.5 10t93.5 43q70 49 71 137q4 10 0 39l2 -6q-2 6 -3 15t-3 20q-14 88 -74 124q-51 37 -100 55.5t-96 14.5h-21.5t-30 -1t-49 -3t-77.5 -4v-162v-22v-252z" />
    <glyph glyph-name="afii10093" unicode="&#x44b;" horiz-adv-x="1304" 
d="M104 29v1157h193v-367q39 4 77 5t64 1q158 0 291 -92q72 -55 114 -124.5t50 -155.5v-12.5t2 -16.5v-33l-6 -24q4 8 4 0q-2 -51 -14.5 -93.5t-32.5 -76.5v2q-16 -25 -41 -50.5t-57 -54.5q-63 -49 -143.5 -70.5t-168.5 -15.5q-29 0 -123 5t-209 16zM297 197q43 -4 85 -6.5
t73 -2.5q110 -5 184 56q59 45 59 135v41q-2 6 -4 15t-2 16q-2 76 -67 131h2q-88 63 -170 57q-16 0 -57.5 -3t-102.5 -9v-158q-4 -10 0 -23v-249zM698 416l2 -4q-2 2 -2 4zM698 416v4v4v-8zM1001 -2h205v1188h-205v-1188z" />
    <glyph glyph-name="afii10094" unicode="&#x44c;" horiz-adv-x="1003" 
d="M102 29v1132h191v-342q41 4 79 5t64 1q160 0 289 -92q152 -113 166 -280v-12.5t2 -16.5v-33l-6 -24q4 8 4 0q-2 -51 -14.5 -93.5t-34.5 -76.5v2q-14 -25 -39 -50.5t-60 -54.5q-61 -49 -141 -70.5t-170 -15.5q-12 0 -45 1t-77 4t-98 7.5t-110 8.5zM293 197q43 -4 85 -6.5
t75 -2.5q106 -5 184 56q59 45 59 135v41q-2 6 -4 15t-2 16q-6 84 -67 127q-86 68 -168 61q-18 0 -56.5 -3t-105.5 -9v-158q-4 -10 0 -23v-249zM696 416l2 -4q-2 2 -2 4zM696 416v4v4v-8z" />
    <glyph glyph-name="afii10095" unicode="&#x44d;" horiz-adv-x="1124" 
d="M47 43v36.5t2 35.5v61l70 53q59 -16 98 -26t55 -15q86 -23 189 -16q68 0 129 24.5t115 67.5q90 80 120 277q6 31 6 43q2 33 0 47q-12 199 -110 291q-41 41 -106.5 59t-151.5 18q-51 0 -133 -5t-205 -19v207q106 8 185 13t132 5q270 0 406 -121v2q182 -160 190 -426v-7
t2 -13v-49v-17.5t-2 -27.5q-29 -279 -211 -437q-152 -133 -387 -133q-23 2 -49 3t-53 6q-66 8 -138.5 23t-152.5 40zM227 520v201h721v-201h-721z" />
    <glyph glyph-name="afii10096" unicode="&#x44e;" horiz-adv-x="1800" 
d="M150 -2v1188h204v-469h176v-205h-176v-514h-204zM506 590q0 250 164 432q166 184 385 184q221 0 387 -184q162 -184 162 -432q0 -145 -37 -259t-107.5 -194t-173 -122t-231.5 -42q-244 0 -400 170q-150 164 -149 447zM715 590q0 -193 96 -305q92 -107 246 -107
q150 0 248 107h-2q47 59 72.5 134t25.5 171q0 166 -109 291q-102 121 -235 120q-131 0 -236 -120q-106 -125 -106 -291z" />
    <glyph glyph-name="afii10097" unicode="&#x44f;" horiz-adv-x="1003" 
d="M-55 4q45 49 101 108.5t115.5 121t119 122t114.5 113.5q-129 33 -194.5 115t-77.5 231q0 168 88 258q106 111 348 119q51 0 124 -5t167 -16v-1171h-193v451q-4 0 -9 -1t-9 -1q-111 -102 -223.5 -216t-222.5 -229h-248zM311 819q4 -111 78 -147q70 -37 225 -37h43v373
q-35 2 -65 0q-180 -6 -240 -66q-41 -37 -41 -123z" />
    <glyph glyph-name="afii10071" unicode="&#x451;" horiz-adv-x="1212" 
d="M46 643q-1 6 3 16q12 123 66.5 228.5t142.5 185.5q72 61 156 95t176 34q39 0 74 -6q207 -37 327 -225q104 -170 96 -434h-831q35 -195 125 -273q51 -43 112.5 -67.5t129.5 -24.5q102 -6 188 16q8 2 33.5 9.5t57.5 15.5t68 18.5t66 18.5v-207q-156 -47 -293 -63
q-25 -4 -50 -5.5t-50 -3.5q-233 0 -389 133q-86 76 -138.5 185.5t-68.5 251.5v86q0 10 -1 16zM270 739h600q-16 55 -41 95q-92 161 -233 161q-109 0 -215 -90q-41 -35 -67.5 -77t-43.5 -89zM322 1292v205h204v-205h-204zM659 1292v205h205v-205h-205z" />
    <glyph glyph-name="afii10100" unicode="&#x453;" horiz-adv-x="872" 
d="M156 2v1172h655v-201h-451v-971h-204zM307 1434l330 163l45 -88l-330 -163z" />
    <glyph glyph-name="afii10102" unicode="&#x455;" horiz-adv-x="800" 
d="M31 879q0 35 6 65q49 254 319 254q211 0 353 -145l-19 -236q-135 137 -174 156q-31 16 -90 22q-35 6 -51 6q-111 0 -131 -104q-2 -10 -3 -16.5t-1 -12.5q0 -59 157 -155v-2q178 -109 248 -193q41 -45 59.5 -95t18.5 -104q0 -39 -8 -86q-29 -137 -131 -204
q-92 -68 -222 -68q-23 0 -45 3t-49 7q-63 14 -122.5 40t-110.5 65l4 252q195 -176 326 -176q59 0 94 34.5t49 100.5q4 20 4 24q0 70 -102 146l2 -2q-113 76 -228 151q-154 125 -153 273z" />
    <glyph glyph-name="afii10103" unicode="&#x456;" horiz-adv-x="499" 
d="M137 -2v1188h205v-1188h-205zM137 1253v205h205v-205h-205z" />
    <glyph glyph-name="afii10104" unicode="&#x457;" horiz-adv-x="499" 
d="M-41 1253v205h205v-205h-205zM137 -2v1188h205v-1188h-205zM297 1253v205h205v-205h-205z" />
    <glyph glyph-name="afii10105" unicode="&#x458;" horiz-adv-x="532" 
d="M-113 -438q123 10 164 47q45 35 65.5 127t22.5 239q0 240 1 429.5t1 334.5q0 147 -1 270.5t-1 176.5h205v-1215q-2 -182 -29 -297q-31 -131 -118 -211h2q-94 -82 -312 -100v199zM139 1253v205h205v-205h-205z" />
    <glyph glyph-name="afii10107" unicode="&#x45a;" horiz-adv-x="1705" 
d="M145 0v1171h203v-454h438v454h191v-352q41 4 79 5t64 1q160 0 289 -92q72 -55 115 -124.5t51 -155.5v-12.5t2 -16.5v-45q-2 -4 -2 -12q-2 -51 -14.5 -93.5t-34.5 -76.5v2q-31 -49 -99 -105q-61 -49 -141 -70.5t-170 -15.5q-12 0 -45 1t-77 4t-98 7.5t-110 8.5v483h-438
v-512h-203zM977 197q43 -4 85 -6.5t75 -2.5q106 -5 184 56q59 45 59 135v41q-2 6 -4 15t-2 16q-6 82 -67 127q-86 68 -168 61q-18 0 -56.5 -3t-105.5 -9v-158q-4 -10 0 -23v-249zM1380 416l2 -4q-2 2 -2 4zM1380 416v4v4v-8z" />
    <glyph glyph-name="afii10109" unicode="&#x45c;" horiz-adv-x="1091" 
d="M166 -2h205v524q115 -119 227.5 -249t224.5 -273h256q-283 383 -565 666l533 520h-293q-92 -92 -189.5 -188.5t-193.5 -192.5v383h-205v-1190zM393 1434l330 163l45 -88l-330 -163z" />
    <glyph glyph-name="afii10110" unicode="&#x45e;" horiz-adv-x="1073" 
d="M2 1182h217l297 -824q72 205 145.5 415t145.5 409h213l-553 -1577v2q-2 -4 -2 -6t-2 -7q-2 -4 -6 -16q-14 -33 -31.5 -62.5t-46.5 -56.5h2q-86 -84 -307 -114l-4 198q119 14 159 54q27 27 41 59q35 104 70 199.5t72 199.5q-47 131 -99.5 274.5t-105.5 289t-105.5 289
t-99.5 274.5zM250 1438l90 37q27 -51 76 -88t121 -37t121 36.5t75 88.5l90 -37q-39 -86 -113.5 -136.5t-172.5 -50.5q-59 0 -106.5 17.5t-82.5 44t-59.5 60.5t-38.5 65z" />
    <glyph glyph-name="afii10050" unicode="&#x490;" horiz-adv-x="1116" 
d="M158 2v1636h669v113h211v-321h-671v-1428h-209z" />
    <glyph glyph-name="afii10098" unicode="&#x491;" horiz-adv-x="876" 
d="M156 2v1172h450v94h205v-295h-451v-971h-204z" />
    <glyph glyph-name="uni049A" unicode="&#x49a;" horiz-adv-x="1550" 
d="M143 0v1636h211v-575q160 143 323 288.5t322 286.5h318l-844 -749q197 -182 393.5 -384t395.5 -425v-268h-240v227q-168 182 -332 348t-336 324v-709h-211z" />
    <glyph glyph-name="uni049B" unicode="&#x49b;" horiz-adv-x="1083" 
d="M166 -2v1190h203v-383q98 96 195.5 192.5t189.5 188.5h290l-530 -520q137 -137 263 -285t245 -307v-260h-227v223q-98 123 -207 248t-219 237v-524h-203z" />
    <glyph glyph-name="uni04A0" unicode="&#x4a0;" horiz-adv-x="1417" 
d="M111 1425v211h325v-575q160 143 323 288.5t322 286.5h318l-846 -749q203 -186 417 -408.5t443 -478.5h-278q-178 197 -352.5 374t-346.5 335v-709h-211v1425h-114z" />
    <glyph glyph-name="uni04A1" unicode="&#x4a1;" horiz-adv-x="1083" 
d="M72 983v205h297v-383q96 96 193 192.5t190 188.5h290l-530 -520q141 -141 280.5 -306t284.5 -360h-256q-113 143 -225.5 273t-226.5 249v-524h-205v985h-92z" />
    <glyph glyph-name="uni04AE" unicode="&#x4ae;" horiz-adv-x="1300" 
d="M-18 1638h245l398 -632q98 156 199.5 317.5t197.5 314.5h246l-541 -862l2 2v-776h-209v780q-61 96 -129.5 206t-139.5 222.5t-139.5 222t-129.5 205.5z" />
    <glyph glyph-name="uni04AF" unicode="&#x4af;" horiz-adv-x="1060" 
d="M0 1182h215l297 -822q72 205 145.5 414t143.5 408h215l-400 -1133q0 -78 -1 -164t-2 -174t-2 -174t-1 -162h-202l2 674z" />
    <glyph glyph-name="uni04D8" unicode="&#x4d8;" horiz-adv-x="1705" 
d="M92 866h1208q-4 4 -4 15q-23 152 -75 261t-134 185v-2q-158 135 -362 135q-16 2 -29.5 2h-23.5q-121 0 -209 -24q-39 -8 -297 -80v219q211 59 391 86q35 4 72 5t71 3q326 2 537 -184q240 -213 289 -608v-121q0 -16 -1 -25.5t-3 -19.5v6q-12 -180 -86 -323.5t-205 -260.5
q-197 -176 -455 -176q-27 0 -53.5 1t-48.5 5q-139 27 -253 103.5t-196 210.5q-150 236 -133 587zM322 651q10 -66 27.5 -122t41.5 -107l-4 6q166 -246 381 -246q84 0 167 37t163 109q70 66 117 145.5t67 177.5h-960z" />
    <glyph glyph-name="afii10846" unicode="&#x4d9;" horiz-adv-x="1210" 
d="M55 637h828q-16 96 -47 163.5t-72 108.5q-53 41 -114.5 65.5t-129.5 24.5q-102 6 -188 -16q-8 -2 -33 -9t-57.5 -15.5t-67.5 -18.5t-65 -18v208q78 23 151.5 39.5t138.5 22.5q25 4 51.5 5t49.5 3q119 2 215 -31.5t174 -99.5q176 -156 209 -438v-86q0 -10 1 -15.5
t-3 -15.5q-12 -123 -67.5 -228.5t-143.5 -187.5q-72 -61 -156 -94t-176 -33h-37.5t-36.5 4q-102 18 -184 73.5t-141 154.5q-109 166 -99 434zM272 432q8 -27 17.5 -50.5t21.5 -43.5q93 -162 238 -162q106 0 215 90q78 66 108 166h-600z" />
    <glyph glyph-name="uni2000" unicode="&#x2000;" horiz-adv-x="990" 
 />
    <glyph glyph-name="uni2001" unicode="&#x2001;" horiz-adv-x="1980" 
 />
    <glyph glyph-name="uni2002" unicode="&#x2002;" horiz-adv-x="990" 
 />
    <glyph glyph-name="uni2003" unicode="&#x2003;" horiz-adv-x="1980" 
 />
    <glyph glyph-name="uni2004" unicode="&#x2004;" horiz-adv-x="660" 
 />
    <glyph glyph-name="uni2005" unicode="&#x2005;" horiz-adv-x="495" 
 />
    <glyph glyph-name="uni2006" unicode="&#x2006;" horiz-adv-x="330" 
 />
    <glyph glyph-name="uni2007" unicode="&#x2007;" horiz-adv-x="330" 
 />
    <glyph glyph-name="uni2008" unicode="&#x2008;" horiz-adv-x="247" 
 />
    <glyph glyph-name="uni2009" unicode="&#x2009;" horiz-adv-x="396" 
 />
    <glyph glyph-name="uni200A" unicode="&#x200a;" horiz-adv-x="110" 
 />
    <glyph glyph-name="uni2010" unicode="&#x2010;" horiz-adv-x="772" 
d="M74 541v200h598v-200h-598z" />
    <glyph glyph-name="uni2011" unicode="&#x2011;" horiz-adv-x="772" 
d="M74 541v200h598v-200h-598z" />
    <glyph glyph-name="figuredash" unicode="&#x2012;" horiz-adv-x="772" 
d="M74 541v200h598v-200h-598z" />
    <glyph glyph-name="endash" unicode="&#x2013;" horiz-adv-x="1198" 
d="M74 541v200h1024v-200h-1024z" />
    <glyph glyph-name="emdash" unicode="&#x2014;" horiz-adv-x="2222" 
d="M74 541v200h2048v-200h-2048z" />
    <glyph glyph-name="ellipsis" unicode="&#x2026;" horiz-adv-x="1609" 
d="M158 0v242h241v-242h-241zM645 0v242h240v-242h-240zM1130 0v242h242v-242h-242z" />
    <glyph glyph-name="uni202F" unicode="&#x202f;" horiz-adv-x="396" 
 />
    <glyph glyph-name="uni205F" unicode="&#x205f;" horiz-adv-x="495" 
 />
    <glyph glyph-name="Euro" unicode="&#x20ac;" horiz-adv-x="1431" 
d="M61 489v205h191v4q-4 12 -5 24.5t-1 35.5v28l6 97h-191v204h207q10 53 32 103.5t54 109.5v-2q59 109 187 201q150 111 426 111q47 0 140 -5.5t183 -13.5v-205q-123 12 -208 17.5t-136 5.5q-285 0 -405 -213q-16 -31 -28.5 -56.5t-23.5 -52.5h586v-204h-612
q-2 -16 -3 -28.5l-3 -37.5q-2 -2 -2 -29v-27t2 -20q0 -6 1 -13t1 -15v-8v1t1 0t1 -12h614v-205h-586q10 -29 23.5 -55t28.5 -53q121 -213 405 -213q51 0 136 5t208 17v-204q-119 -10 -198.5 -16.5t-124.5 -6.5q-135 0 -244 30t-182 83q-66 49 -118 106.5t-83 118.5
q-23 45 -41 92t-29 96h-209z" />
    <glyph glyph-name="uni25FC" unicode="&#x25fc;" horiz-adv-x="1177" 
d="M0 0v1178h1178v-1178h-1178z" />
  </font>
</defs>
</svg>
